<svg width="22" height="23" viewBox="0 0 22 23" fill="none" xmlns="http://www.w3.org/2000/svg">
<path d="M19.4098 9.33609C19.0859 8.9975 18.7507 8.64859 18.6244 8.3418C18.5075 8.06078 18.5006 7.595 18.4937 7.14383C18.4809 6.30508 18.4671 5.35461 17.8062 4.69375C17.1454 4.03289 16.1949 4.01914 15.3562 4.00625C14.905 3.99937 14.4392 3.9925 14.1582 3.87562C13.8523 3.7493 13.5025 3.41414 13.1639 3.09016C12.5709 2.52039 11.8972 1.875 11 1.875C10.1028 1.875 9.42992 2.52039 8.83609 3.09016C8.4975 3.41414 8.14859 3.7493 7.8418 3.87562C7.5625 3.9925 7.095 3.99937 6.64383 4.00625C5.80508 4.01914 4.85461 4.03289 4.19375 4.69375C3.53289 5.35461 3.52344 6.30508 3.50625 7.14383C3.49937 7.595 3.4925 8.06078 3.37562 8.3418C3.2493 8.64773 2.91414 8.9975 2.59016 9.33609C2.02039 9.92906 1.375 10.6028 1.375 11.5C1.375 12.3972 2.02039 13.0701 2.59016 13.6639C2.91414 14.0025 3.2493 14.3514 3.37562 14.6582C3.4925 14.9392 3.49937 15.405 3.50625 15.8562C3.51914 16.6949 3.53289 17.6454 4.19375 18.3062C4.85461 18.9671 5.80508 18.9809 6.64383 18.9937C7.095 19.0006 7.56078 19.0075 7.8418 19.1244C8.14773 19.2507 8.4975 19.5859 8.83609 19.9098C9.42906 20.4796 10.1028 21.125 11 21.125C11.8972 21.125 12.5701 20.4796 13.1639 19.9098C13.5025 19.5859 13.8514 19.2507 14.1582 19.1244C14.4392 19.0075 14.905 19.0006 15.3562 18.9937C16.1949 18.9809 17.1454 18.9671 17.8062 18.3062C18.4671 17.6454 18.4809 16.6949 18.4937 15.8562C18.5006 15.405 18.5075 14.9392 18.6244 14.6582C18.7507 14.3523 19.0859 14.0025 19.4098 13.6639C19.9796 13.0709 20.625 12.3972 20.625 11.5C20.625 10.6028 19.9796 9.92992 19.4098 9.33609ZM14.9239 9.92391L10.1114 14.7364C10.0476 14.8003 9.97173 14.851 9.88827 14.8856C9.80481 14.9202 9.71535 14.938 9.625 14.938C9.53465 14.938 9.44519 14.9202 9.36173 14.8856C9.27827 14.851 9.20244 14.8003 9.13859 14.7364L7.07609 12.6739C6.94709 12.5449 6.87462 12.3699 6.87462 12.1875C6.87462 12.0051 6.94709 11.8301 7.07609 11.7011C7.2051 11.5721 7.38006 11.4996 7.5625 11.4996C7.74494 11.4996 7.9199 11.5721 8.04891 11.7011L9.625 13.278L13.9511 8.95109C14.015 8.88722 14.0908 8.83655 14.1743 8.80198C14.2577 8.76741 14.3472 8.74962 14.4375 8.74962C14.5278 8.74962 14.6173 8.76741 14.7007 8.80198C14.7842 8.83655 14.86 8.88722 14.9239 8.95109C14.9878 9.01497 15.0385 9.0908 15.073 9.17426C15.1076 9.25772 15.1254 9.34717 15.1254 9.4375C15.1254 9.52783 15.1076 9.61728 15.073 9.70074C15.0385 9.7842 14.9878 9.86003 14.9239 9.92391Z" fill="url(#paint0_linear_23507_622)"/>
<defs>
<linearGradient id="paint0_linear_23507_622" x1="2.68072" y1="13.2207" x2="17.4566" y2="9.5257" gradientUnits="userSpaceOnUse">
<stop stop-color="#CE9400"/>
<stop offset="0.504191" stop-color="#FF008A"/>
<stop offset="1" stop-color="#6100FF"/>
</linearGradient>
</defs>
</svg>
