<svg width="14" height="24" viewBox="0 0 14 24" fill="none" xmlns="http://www.w3.org/2000/svg">
<g clip-path="url(#clip0_23545_1028)">
<path d="M6.73834 0C3.04754 0 0.0449219 3.16683 0.0449219 7.05947V16.9405C0.0449219 20.8332 3.04754 24 6.73834 24C10.4291 24 13.4317 20.8332 13.4317 16.9405V7.05947C13.4317 3.16683 10.4291 0 6.73834 0ZM12.0664 16.9405C12.0664 20.0391 9.67621 22.56 6.73834 22.56C3.80048 22.56 1.41021 20.0391 1.41021 16.9405V7.05947C1.41021 3.96094 3.80048 1.43995 6.73834 1.43995C9.67617 1.43995 12.0664 3.96094 12.0664 7.05947V16.9405Z" fill="#414141"/>
<path d="M6.73731 4.77348C6.36024 4.77348 6.05469 5.09575 6.05469 5.49344V8.80727C6.05469 9.20477 6.36024 9.52727 6.73735 9.52727C7.11424 9.52727 7.41998 9.20477 7.41998 8.80727V5.49344C7.41998 5.09575 7.11442 4.77348 6.73731 4.77348Z" fill="#414141"/>
</g>
<defs>
<clipPath id="clip0_23545_1028">
<rect width="14" height="24" fill="white"/>
</clipPath>
</defs>
</svg>
