<svg width="24" height="24" viewBox="0 0 24 24" fill="none" xmlns="http://www.w3.org/2000/svg">
<path d="M6.24979 19.5C5.46679 19.4986 4.70394 19.2517 4.06857 18.7941C3.4332 18.3365 2.95729 17.6912 2.70779 16.949L2.67279 16.834C2.56078 16.4835 2.50245 16.118 2.49979 15.75V8.932L0.0737938 17.03C-0.0746847 17.6062 0.0089283 18.2177 0.306648 18.7329C0.604368 19.2481 1.09241 19.6259 1.66579 19.785L17.1288 23.926C17.3218 23.976 17.5148 24 17.7048 24C18.7008 24 19.6108 23.339 19.8658 22.365L20.7668 19.5H6.24979ZM8.99979 9C10.1028 9 10.9998 8.103 10.9998 7C10.9998 5.897 10.1028 5 8.99979 5C7.89679 5 6.99979 5.897 6.99979 7C6.99979 8.103 7.89679 9 8.99979 9Z" fill="#414141"/>
<path d="M21.5 2H6.5C5.8372 2.00079 5.20178 2.26444 4.73311 2.73311C4.26444 3.20178 4.00079 3.8372 4 4.5V15.5C4 16.878 5.122 18 6.5 18H21.5C22.878 18 24 16.878 24 15.5V4.5C24 3.122 22.878 2 21.5 2ZM6.5 4H21.5C21.6326 4 21.7598 4.05268 21.8536 4.14645C21.9473 4.24021 22 4.36739 22 4.5V11.599L18.841 7.913C18.674 7.72114 18.468 7.56705 18.2368 7.46101C18.0055 7.35497 17.7544 7.2994 17.5 7.298C17.2448 7.29932 16.9929 7.35649 16.7621 7.4655C16.5313 7.5745 16.3272 7.73271 16.164 7.929L12.45 12.387L11.24 11.18C10.911 10.8515 10.465 10.6669 10 10.6669C9.53502 10.6669 9.08905 10.8515 8.76 11.18L6 13.939V4.5C6 4.36739 6.05268 4.24021 6.14645 4.14645C6.24021 4.05268 6.36739 4 6.5 4Z" fill="#414141"/>
</svg>
