<svg width="24" height="24" viewBox="0 0 24 24" fill="none" xmlns="http://www.w3.org/2000/svg">
<path d="M20.4844 12.569H18.1351C17.8154 12.569 17.5058 12.6127 17.2112 12.693C16.63 11.5506 15.4435 10.7656 14.0763 10.7656H9.92367C8.55647 10.7656 7.36997 11.5506 6.78881 12.693C6.48774 12.6107 6.17702 12.569 5.86491 12.569H3.51562C1.57711 12.569 0 14.1461 0 16.0846V19.8402C0 21.0033 0.946266 21.9495 2.10938 21.9495H21.8906C23.0537 21.9495 24 21.0033 24 19.8402V16.0846C24 14.1461 22.4229 12.569 20.4844 12.569ZM6.40805 14.2813V20.5433H2.10938C1.72167 20.5433 1.40625 20.2279 1.40625 19.8402V16.0847C1.40625 14.9216 2.35252 13.9753 3.51562 13.9753H5.86491C6.05578 13.9753 6.24061 14.0012 6.41658 14.049C6.41119 14.1263 6.40834 14.2038 6.40805 14.2813ZM16.1857 20.5433H7.8143V14.2813C7.8143 13.1182 8.76056 12.1719 9.92367 12.1719H14.0763C15.2394 12.1719 16.1857 13.1182 16.1857 14.2813V20.5433ZM22.5938 19.8402C22.5938 20.2279 22.2783 20.5433 21.8906 20.5433H17.592V14.2813C17.5917 14.2038 17.5888 14.1263 17.5834 14.0489C17.7632 14.0001 17.9488 13.9753 18.1351 13.9753H20.4844C21.6475 13.9753 22.5938 14.9215 22.5938 16.0846V19.8402Z" fill="#414141"/>
<path d="M4.69044 5.93086C2.96783 5.93086 1.56641 7.33228 1.56641 9.05489C1.56636 10.7775 2.96783 12.1789 4.69044 12.1789C6.413 12.1789 7.81447 10.7775 7.81447 9.05489C7.81447 7.33228 6.41305 5.93086 4.69044 5.93086ZM4.69039 10.7727C3.74319 10.7727 2.97261 10.0021 2.97261 9.05489C2.97261 8.10769 3.74319 7.33711 4.69039 7.33711C5.63759 7.33711 6.40817 8.10769 6.40817 9.05489C6.40817 10.0021 5.63759 10.7727 4.69039 10.7727ZM12.0001 2.05078C9.69875 2.05078 7.82647 3.92306 7.82647 6.22444C7.82647 8.52581 9.69875 10.3981 12.0001 10.3981C14.3015 10.3981 16.1738 8.52581 16.1738 6.22444C16.1738 3.92311 14.3015 2.05078 12.0001 2.05078ZM12.0001 8.99184C10.4742 8.99184 9.23272 7.75041 9.23272 6.22444C9.23272 4.69852 10.4742 3.45703 12.0001 3.45703C13.5261 3.45703 14.7675 4.69847 14.7675 6.22444C14.7675 7.75041 13.5261 8.99184 12.0001 8.99184ZM19.3098 5.93086C17.5872 5.93086 16.1858 7.33228 16.1858 9.05489C16.1858 10.7775 17.5872 12.1789 19.3098 12.1789C21.0324 12.1789 22.4338 10.7775 22.4338 9.05489C22.4338 7.33228 21.0324 5.93086 19.3098 5.93086ZM19.3098 10.7727C18.3627 10.7727 17.592 10.0021 17.592 9.05489C17.5921 8.10769 18.3627 7.33711 19.3098 7.33711C20.257 7.33711 21.0276 8.10769 21.0276 9.05489C21.0276 10.0021 20.257 10.7727 19.3098 10.7727Z" fill="#414141"/>
</svg>
