<svg width="60" height="60" viewBox="0 0 60 60" fill="none" xmlns="http://www.w3.org/2000/svg">
<g clip-path="url(#clip0_23507_538)">
<mask id="mask0_23507_538" style="mask-type:luminance" maskUnits="userSpaceOnUse" x="0" y="0" width="60" height="60">
<path d="M60 0H0V60H60V0Z" fill="white"/>
</mask>
<g mask="url(#mask0_23507_538)">
<path d="M53.7467 59.2934H6.32002C3.21336 59.2934 0.693359 56.7734 0.693359 53.6667V6.53341C0.693359 3.42674 3.21336 0.906738 6.32002 0.906738H53.7334C56.84 0.906738 59.36 3.42674 59.36 6.53341V53.6801C59.3734 56.7734 56.8534 59.2934 53.7467 59.2934ZM6.32002 2.22674C3.94669 2.22674 2.02669 4.16007 2.02669 6.52007V53.6667C2.02669 56.0401 3.96002 57.9601 6.32002 57.9601H53.7334C56.1067 57.9601 58.0267 56.0267 58.0267 53.6667V6.53341C58.0267 4.16007 56.0934 2.24007 53.7334 2.24007H6.32002V2.22674Z" fill="url(#paint0_linear_23507_538)"/>
<path d="M58.7067 12.2802H1.36002C0.986693 12.2802 0.693359 11.9868 0.693359 11.6135C0.693359 11.2402 0.986693 10.9468 1.36002 10.9468H58.7067C59.08 10.9468 59.3734 11.2402 59.3734 11.6135C59.3734 11.9868 59.08 12.2802 58.7067 12.2802Z" fill="url(#paint1_linear_23507_538)"/>
<path d="M10.2664 9.13337C8.86639 9.13337 7.71973 7.98671 7.71973 6.58671C7.71973 5.18671 8.85306 4.04004 10.2664 4.04004C11.6664 4.04004 12.8131 5.18671 12.8131 6.58671C12.8131 7.98671 11.6664 9.13337 10.2664 9.13337ZM10.2664 5.37337C9.59973 5.37337 9.05306 5.92004 9.05306 6.58671C9.05306 7.25337 9.59973 7.80004 10.2664 7.80004C10.9331 7.80004 11.4797 7.25337 11.4797 6.58671C11.4797 5.92004 10.9331 5.37337 10.2664 5.37337Z" fill="url(#paint2_linear_23507_538)"/>
<path d="M17.2137 9.13337C15.8137 9.13337 14.667 7.98671 14.667 6.58671C14.667 5.18671 15.8137 4.04004 17.2137 4.04004C18.6137 4.04004 19.7603 5.18671 19.7603 6.58671C19.7603 7.98671 18.6137 9.13337 17.2137 9.13337ZM17.2137 5.37337C16.547 5.37337 16.0003 5.92004 16.0003 6.58671C16.0003 7.25337 16.547 7.80004 17.2137 7.80004C17.8803 7.80004 18.427 7.25337 18.427 6.58671C18.427 5.92004 17.8803 5.37337 17.2137 5.37337Z" fill="url(#paint3_linear_23507_538)"/>
<path d="M24.1599 9.13337C22.7599 9.13337 21.6133 7.98671 21.6133 6.58671C21.6133 5.18671 22.7599 4.04004 24.1599 4.04004C25.5599 4.04004 26.7066 5.18671 26.7066 6.58671C26.7066 7.98671 25.5733 9.13337 24.1599 9.13337ZM24.1599 5.37337C23.4933 5.37337 22.9466 5.92004 22.9466 6.58671C22.9466 7.25337 23.4933 7.80004 24.1599 7.80004C24.8266 7.80004 25.3733 7.25337 25.3733 6.58671C25.3733 5.92004 24.8266 5.37337 24.1599 5.37337Z" fill="url(#paint4_linear_23507_538)"/>
<path d="M50.1738 47.5203H9.8405C9.46716 47.5203 9.17383 47.227 9.17383 46.8537C9.17383 46.4803 9.46716 46.187 9.8405 46.187H50.1738C50.5471 46.187 50.8405 46.4803 50.8405 46.8537C50.8405 47.227 50.5471 47.5203 50.1738 47.5203Z" fill="url(#paint5_linear_23507_538)"/>
<path d="M37.5997 18.7601H28.3864C28.0131 18.7601 27.7197 18.4668 27.7197 18.0934C27.7197 17.7201 28.0131 17.4268 28.3864 17.4268H37.5997C37.9731 17.4268 38.2664 17.7201 38.2664 18.0934C38.2664 18.4668 37.9731 18.7601 37.5997 18.7601Z" fill="url(#paint6_linear_23507_538)"/>
<path d="M37.5997 25.8402H28.3864C28.0131 25.8402 27.7197 25.5468 27.7197 25.1735C27.7197 24.8002 28.0131 24.5068 28.3864 24.5068H37.5997C37.9731 24.5068 38.2664 24.8002 38.2664 25.1735C38.2664 25.5468 37.9731 25.8402 37.5997 25.8402Z" fill="url(#paint7_linear_23507_538)"/>
<path d="M37.5997 32.9071H28.3864C28.0131 32.9071 27.7197 32.6137 27.7197 32.2404C27.7197 31.8671 28.0131 31.5737 28.3864 31.5737H37.5997C37.9731 31.5737 38.2664 31.8671 38.2664 32.2404C38.2664 32.6137 37.9731 32.9071 37.5997 32.9071Z" fill="url(#paint8_linear_23507_538)"/>
<path d="M23.9871 32.9068H9.8405C9.46716 32.9068 9.17383 32.6134 9.17383 32.2401V18.0934C9.17383 17.7201 9.46716 17.4268 9.8405 17.4268H23.9871C24.3605 17.4268 24.6538 17.7201 24.6538 18.0934V32.2401C24.6538 32.6134 24.3605 32.9068 23.9871 32.9068ZM10.5072 31.5734H23.3205V18.7601H10.5072V31.5734Z" fill="url(#paint9_linear_23507_538)"/>
<path d="M19.9466 28.8668H13.8932C13.5199 28.8668 13.2266 28.5735 13.2266 28.2001V22.1335C13.2266 21.7601 13.5199 21.4668 13.8932 21.4668H19.9466C20.3199 21.4668 20.6132 21.7601 20.6132 22.1335V28.1868C20.6132 28.5735 20.3199 28.8668 19.9466 28.8668ZM14.5599 27.5335H19.2799V22.8001H14.5599V27.5335Z" fill="url(#paint10_linear_23507_538)"/>
<path d="M50.173 32.9068H41.9997C41.6263 32.9068 41.333 32.6134 41.333 32.2401V18.0934C41.333 17.7201 41.6263 17.4268 41.9997 17.4268H50.1863C50.5597 17.4268 50.853 17.7201 50.853 18.0934V32.2401C50.8397 32.6134 50.5463 32.9068 50.173 32.9068ZM42.6663 31.5734H49.5197V18.7601H42.6663V31.5734Z" fill="url(#paint11_linear_23507_538)"/>
<path d="M23.0397 40.2132H20.653C20.2797 40.2132 19.9863 39.9199 19.9863 39.5465C19.9863 39.1732 20.2797 38.8799 20.653 38.8799H23.0397C23.413 38.8799 23.7063 39.1732 23.7063 39.5465C23.7063 39.9199 23.413 40.2132 23.0397 40.2132Z" fill="url(#paint12_linear_23507_538)"/>
<path d="M17.9334 42.2267H9.4401C9.06677 42.2267 8.77344 41.9334 8.77344 41.56V37.5334C8.77344 37.16 9.06677 36.8667 9.4401 36.8667H17.9201C18.2934 36.8667 18.5868 37.16 18.5868 37.5334V41.56C18.6001 41.9334 18.2934 42.2267 17.9334 42.2267ZM10.1068 40.8934H17.2534V38.2H10.1068V40.8934Z" fill="url(#paint13_linear_23507_538)"/>
<path d="M34.2531 42.2267H25.7731C25.3998 42.2267 25.1064 41.9334 25.1064 41.56V37.5334C25.1064 37.16 25.3998 36.8667 25.7731 36.8667H34.2531C34.6264 36.8667 34.9198 37.16 34.9198 37.5334V41.56C34.9198 41.9334 34.6264 42.2267 34.2531 42.2267ZM26.4398 40.8934H33.5864V38.2H26.4398V40.8934Z" fill="url(#paint14_linear_23507_538)"/>
<path d="M50.173 42.2267H41.693C41.3197 42.2267 41.0264 41.9334 41.0264 41.56V37.5334C41.0264 37.16 41.3197 36.8667 41.693 36.8667H50.173C50.5464 36.8667 50.8397 37.16 50.8397 37.5334V41.56C50.8397 41.9334 50.5464 42.2267 50.173 42.2267ZM42.3597 40.8934H49.5064V38.2H42.3597V40.8934Z" fill="url(#paint15_linear_23507_538)"/>
<path d="M39.1735 40.2132H36.7868C36.4135 40.2132 36.1201 39.9199 36.1201 39.5465C36.1201 39.1732 36.4135 38.8799 36.7868 38.8799H39.1735C39.5468 38.8799 39.8401 39.1732 39.8401 39.5465C39.8401 39.9199 39.5335 40.2132 39.1735 40.2132Z" fill="url(#paint16_linear_23507_538)"/>
<path d="M50.1738 52.8133H9.8405C9.46716 52.8133 9.17383 52.52 9.17383 52.1466C9.17383 51.7733 9.46716 51.48 9.8405 51.48H50.1738C50.5471 51.48 50.8405 51.7733 50.8405 52.1466C50.8405 52.52 50.5471 52.8133 50.1738 52.8133Z" fill="url(#paint17_linear_23507_538)"/>
</g>
</g>
<defs>
<linearGradient id="paint0_linear_23507_538" x1="4.67269" y1="35.319" x2="49.6784" y2="24.0105" gradientUnits="userSpaceOnUse">
<stop stop-color="#CE9400"/>
<stop offset="0.504191" stop-color="#FF008A"/>
<stop offset="1" stop-color="#6100FF"/>
</linearGradient>
<linearGradient id="paint1_linear_23507_538" x1="4.67359" y1="11.7327" x2="5.06552" y2="7.41952" gradientUnits="userSpaceOnUse">
<stop stop-color="#CE9400"/>
<stop offset="0.504191" stop-color="#FF008A"/>
<stop offset="1" stop-color="#6100FF"/>
</linearGradient>
<linearGradient id="paint2_linear_23507_538" x1="8.0652" y1="7.04197" x2="11.9747" y2="6.06433" gradientUnits="userSpaceOnUse">
<stop stop-color="#CE9400"/>
<stop offset="0.504191" stop-color="#FF008A"/>
<stop offset="1" stop-color="#6100FF"/>
</linearGradient>
<linearGradient id="paint3_linear_23507_538" x1="15.0125" y1="7.04197" x2="18.922" y2="6.06433" gradientUnits="userSpaceOnUse">
<stop stop-color="#CE9400"/>
<stop offset="0.504191" stop-color="#FF008A"/>
<stop offset="1" stop-color="#6100FF"/>
</linearGradient>
<linearGradient id="paint4_linear_23507_538" x1="21.9588" y1="7.04197" x2="25.8683" y2="6.06433" gradientUnits="userSpaceOnUse">
<stop stop-color="#CE9400"/>
<stop offset="0.504191" stop-color="#FF008A"/>
<stop offset="1" stop-color="#6100FF"/>
</linearGradient>
<linearGradient id="paint5_linear_23507_538" x1="12.0001" y1="46.9729" x2="12.5476" y2="42.6943" gradientUnits="userSpaceOnUse">
<stop stop-color="#CE9400"/>
<stop offset="0.504191" stop-color="#FF008A"/>
<stop offset="1" stop-color="#6100FF"/>
</linearGradient>
<linearGradient id="paint6_linear_23507_538" x1="28.4351" y1="18.2126" x2="30.186" y2="14.7492" gradientUnits="userSpaceOnUse">
<stop stop-color="#CE9400"/>
<stop offset="0.504191" stop-color="#FF008A"/>
<stop offset="1" stop-color="#6100FF"/>
</linearGradient>
<linearGradient id="paint7_linear_23507_538" x1="28.4351" y1="25.2927" x2="30.186" y2="21.8293" gradientUnits="userSpaceOnUse">
<stop stop-color="#CE9400"/>
<stop offset="0.504191" stop-color="#FF008A"/>
<stop offset="1" stop-color="#6100FF"/>
</linearGradient>
<linearGradient id="paint8_linear_23507_538" x1="28.4351" y1="32.3596" x2="30.186" y2="28.8962" gradientUnits="userSpaceOnUse">
<stop stop-color="#CE9400"/>
<stop offset="0.504191" stop-color="#FF008A"/>
<stop offset="1" stop-color="#6100FF"/>
</linearGradient>
<linearGradient id="paint9_linear_23507_538" x1="10.2238" y1="26.5504" x2="22.1059" y2="23.5791" gradientUnits="userSpaceOnUse">
<stop stop-color="#CE9400"/>
<stop offset="0.504191" stop-color="#FF008A"/>
<stop offset="1" stop-color="#6100FF"/>
</linearGradient>
<linearGradient id="paint10_linear_23507_538" x1="13.7276" y1="25.8282" x2="19.3986" y2="24.4127" gradientUnits="userSpaceOnUse">
<stop stop-color="#CE9400"/>
<stop offset="0.504191" stop-color="#FF008A"/>
<stop offset="1" stop-color="#6100FF"/>
</linearGradient>
<linearGradient id="paint11_linear_23507_538" x1="41.9787" y1="26.5504" x2="49.5636" y2="25.384" gradientUnits="userSpaceOnUse">
<stop stop-color="#CE9400"/>
<stop offset="0.504191" stop-color="#FF008A"/>
<stop offset="1" stop-color="#6100FF"/>
</linearGradient>
<linearGradient id="paint12_linear_23507_538" x1="20.2387" y1="39.6657" x2="22.2793" y2="38.242" gradientUnits="userSpaceOnUse">
<stop stop-color="#CE9400"/>
<stop offset="0.504191" stop-color="#FF008A"/>
<stop offset="1" stop-color="#6100FF"/>
</linearGradient>
<linearGradient id="paint13_linear_23507_538" x1="9.4391" y1="40.0258" x2="16.0559" y2="36.9963" gradientUnits="userSpaceOnUse">
<stop stop-color="#CE9400"/>
<stop offset="0.504191" stop-color="#FF008A"/>
<stop offset="1" stop-color="#6100FF"/>
</linearGradient>
<linearGradient id="paint14_linear_23507_538" x1="25.7721" y1="40.0258" x2="32.3887" y2="36.9965" gradientUnits="userSpaceOnUse">
<stop stop-color="#CE9400"/>
<stop offset="0.504191" stop-color="#FF008A"/>
<stop offset="1" stop-color="#6100FF"/>
</linearGradient>
<linearGradient id="paint15_linear_23507_538" x1="41.692" y1="40.0258" x2="48.3086" y2="36.9965" gradientUnits="userSpaceOnUse">
<stop stop-color="#CE9400"/>
<stop offset="0.504191" stop-color="#FF008A"/>
<stop offset="1" stop-color="#6100FF"/>
</linearGradient>
<linearGradient id="paint16_linear_23507_538" x1="36.3724" y1="39.6657" x2="38.4131" y2="38.242" gradientUnits="userSpaceOnUse">
<stop stop-color="#CE9400"/>
<stop offset="0.504191" stop-color="#FF008A"/>
<stop offset="1" stop-color="#6100FF"/>
</linearGradient>
<linearGradient id="paint17_linear_23507_538" x1="12.0001" y1="52.2658" x2="12.5476" y2="47.9873" gradientUnits="userSpaceOnUse">
<stop stop-color="#CE9400"/>
<stop offset="0.504191" stop-color="#FF008A"/>
<stop offset="1" stop-color="#6100FF"/>
</linearGradient>
<clipPath id="clip0_23507_538">
<rect width="60" height="60" fill="white"/>
</clipPath>
</defs>
</svg>
