<svg width="24" height="24" viewBox="0 0 24 24" fill="none" xmlns="http://www.w3.org/2000/svg">
<g clip-path="url(#clip0_23545_1046)">
<path d="M12.055 0C12.0486 0.00643032 12.0357 0.00643032 12.0164 0.00643032C5.50895 0.00643032 0.216797 5.29858 0.216797 11.8061C0.216797 14.4618 1.12347 17.0403 2.78249 19.1173L1.0656 23.1041C0.924132 23.4321 1.07846 23.8115 1.39998 23.9465C1.51572 23.9979 1.64433 24.0108 1.7665 23.9915L8.06178 22.8855C9.32213 23.342 10.6468 23.5735 11.9843 23.5671C18.4918 23.5671 23.7839 18.275 23.7839 11.7675C23.7968 5.27929 18.5432 0.00643032 12.055 0ZM11.9907 22.2875C10.7497 22.2875 9.52147 22.0624 8.35758 21.6252C8.24826 21.5801 8.13252 21.5737 8.01677 21.593L2.71819 22.519L4.12 19.2588C4.21645 19.0337 4.17787 18.7701 4.01711 18.5836C3.25834 17.7027 2.65389 16.6995 2.22949 15.6128C1.75364 14.3975 1.50929 13.105 1.50929 11.7996C1.50929 5.99949 6.22914 1.28606 12.0229 1.28606C17.8037 1.2732 22.4978 5.94804 22.5043 11.7289V11.7675C22.5043 17.5741 17.7844 22.2875 11.9907 22.2875Z" fill="#414141"/>
<path d="M11.4904 9.43359H8.01803C7.66436 9.43359 7.375 9.72296 7.375 10.0766C7.375 10.4303 7.66436 10.7197 8.01803 10.7197H11.4904C11.8441 10.7197 12.1334 10.4303 12.1334 10.0766C12.1334 9.72296 11.8441 9.43359 11.4904 9.43359ZM15.9916 12.6488H8.01803C7.66436 12.6488 7.375 12.9381 7.375 13.2918C7.375 13.6455 7.66436 13.9348 8.01803 13.9348H15.9916C16.3453 13.9348 16.6347 13.6455 16.6347 13.2918C16.6347 12.9381 16.3453 12.6488 15.9916 12.6488Z" fill="#414141"/>
</g>
<defs>
<clipPath id="clip0_23545_1046">
<rect width="24" height="24" fill="white"/>
</clipPath>
</defs>
</svg>
