<svg width="24" height="24" viewBox="0 0 24 24" fill="none" xmlns="http://www.w3.org/2000/svg">
<g clip-path="url(#clip0_23545_1064)">
<path d="M5.37178 23.0466C5.1088 23.0466 4.8477 22.9646 4.62485 22.8034C4.42217 22.6567 4.26709 22.4537 4.17889 22.2195C4.0907 21.9854 4.07328 21.7305 4.12881 21.4865L5.67282 14.6852L0.436559 10.0933C0.248237 9.92897 0.112386 9.7129 0.0459084 9.47197C-0.020569 9.23104 -0.0147384 8.97588 0.0626749 8.73824C0.139613 8.50072 0.284569 8.29101 0.479572 8.13511C0.674575 7.9792 0.911047 7.88396 1.15967 7.86118L8.08783 7.23215L10.827 0.821973C11.0289 0.351008 11.4889 0.046875 12 0.046875C12.5111 0.046875 12.971 0.351008 13.173 0.820895L15.9121 7.23215L22.8392 7.86109C23.3493 7.90703 23.7793 8.25222 23.9373 8.73819C24.0953 9.2242 23.9492 9.75723 23.5643 10.0932L18.3281 14.6843L19.8721 21.4854C19.9852 21.9855 19.7911 22.5026 19.3762 22.8025C18.9622 23.1025 18.4101 23.1255 17.9742 22.8635L12 19.2934L6.02584 22.8655C5.82385 22.9855 5.5988 23.0466 5.37178 23.0466ZM12 17.7555C12.227 17.7555 12.4519 17.8164 12.654 17.9364L18.2922 21.3086L16.835 14.8892C16.784 14.6649 16.7946 14.4309 16.8658 14.2121C16.9369 13.9932 17.0659 13.7977 17.2391 13.6463L22.1833 9.31022L15.642 8.71625C15.4118 8.69564 15.1916 8.61281 15.0049 8.47662C14.8181 8.34043 14.672 8.15601 14.582 7.94312L12 1.89394L9.41485 7.94401C9.23283 8.37504 8.82777 8.67116 8.35793 8.71419L1.81575 9.3082L6.75978 13.6443C7.11388 13.9543 7.26876 14.4304 7.16386 14.8883L5.70779 21.3074L11.3459 17.9364C11.5479 17.8164 11.773 17.7555 12 17.7555ZM8.03491 7.35609C8.03491 7.35609 8.03491 7.35717 8.03383 7.35811L8.03491 7.35609ZM15.9631 7.35314L15.9642 7.35515C15.9642 7.35408 15.9642 7.35408 15.963 7.35314H15.9631Z" fill="#414141"/>
</g>
<defs>
<clipPath id="clip0_23545_1064">
<rect width="24" height="24" fill="white"/>
</clipPath>
</defs>
</svg>
