<svg width="24" height="24" viewBox="0 0 24 24" fill="none" xmlns="http://www.w3.org/2000/svg">
<path d="M19.2657 12.3217V10.0781C19.2657 6.80522 17.0902 4.0312 14.1095 3.12516V2.10938C14.1095 0.946266 13.1632 0 12.0001 0C10.837 0 9.89071 0.946266 9.89071 2.10938V3.12516C6.90993 4.0312 4.73446 6.80517 4.73446 10.0781V12.3217C4.73446 15.1966 3.63862 17.9227 1.64882 19.9977C1.55341 20.0972 1.48934 20.2225 1.46457 20.3581C1.4398 20.4936 1.45543 20.6335 1.5095 20.7603C1.56358 20.887 1.65372 20.9951 1.76872 21.0711C1.88372 21.147 2.01851 21.1875 2.15633 21.1875H8.55519C8.88182 22.7903 10.3023 24 12.0001 24C13.6979 24 15.1183 22.7903 15.445 21.1875H21.8438C21.9816 21.1875 22.1164 21.147 22.2314 21.071C22.3464 20.9951 22.4365 20.887 22.4906 20.7603C22.5447 20.6335 22.5603 20.4936 22.5355 20.3581C22.5108 20.2225 22.4467 20.0972 22.3513 19.9977C20.3616 17.9227 19.2657 15.1965 19.2657 12.3217ZM11.297 2.10938C11.297 1.72167 11.6124 1.40625 12.0001 1.40625C12.3878 1.40625 12.7032 1.72167 12.7032 2.10938V2.84663C12.4718 2.82431 12.2373 2.8125 12.0001 2.8125C11.7629 2.8125 11.5284 2.82431 11.297 2.84663V2.10938ZM12.0001 22.5938C11.0834 22.5938 10.3019 22.0059 10.0116 21.1875H13.9885C13.6983 22.0059 12.9167 22.5938 12.0001 22.5938ZM3.6718 19.7812C5.2731 17.6348 6.14071 15.0371 6.14071 12.3217V10.0781C6.14071 6.84727 8.76923 4.21875 12.0001 4.21875C15.2309 4.21875 17.8595 6.84727 17.8595 10.0781V12.3217C17.8595 15.0371 18.7271 17.6348 20.3284 19.7812H3.6718ZM21.1407 10.0781C21.1407 10.4664 21.4555 10.7812 21.8438 10.7812C22.2321 10.7812 22.547 10.4664 22.547 10.0781C22.547 7.26094 21.4499 4.61236 19.4578 2.62031C19.1833 2.34577 18.7381 2.34572 18.4635 2.62031C18.1889 2.89491 18.1889 3.34008 18.4635 3.61467C20.1899 5.34113 21.1407 7.63655 21.1407 10.0781ZM2.15633 10.7812C2.54465 10.7812 2.85946 10.4664 2.85946 10.0781C2.85946 7.63659 3.81027 5.34117 5.53668 3.61472C5.81127 3.34012 5.81127 2.89495 5.53668 2.62036C5.26213 2.34577 4.81691 2.34577 4.54232 2.62036C2.55027 4.61241 1.45321 7.26094 1.45321 10.0781C1.45321 10.4664 1.76802 10.7812 2.15633 10.7812Z" fill="#414141"/>
</svg>
