<svg width="24" height="24" viewBox="0 0 24 24" fill="none" xmlns="http://www.w3.org/2000/svg">
<path d="M22.5 3.0355C22.5 2.62826 22.3382 2.2377 22.0503 1.94974C21.7623 1.66178 21.3717 1.5 20.9645 1.5H3.0355C2.62826 1.5 2.2377 1.66178 1.94974 1.94974C1.66178 2.2377 1.5 2.62826 1.5 3.0355V9.46475C1.50007 9.87195 1.66187 10.2624 1.94983 10.5504C2.23778 10.8383 2.6283 11 3.0355 11H20.9648C21.3719 10.9999 21.7624 10.8381 22.0504 10.5502C22.3383 10.2622 22.5 9.8717 22.5 9.4645V3.0355ZM21 9.25H3V2.75H21V9.25Z" fill="#414141"/>
<path d="M6.49825 7.21582C6.5821 7.31301 6.68592 7.39098 6.80263 7.44442C6.91934 7.49786 7.0462 7.52551 7.17456 7.52549C7.30292 7.52546 7.42977 7.49777 7.54646 7.44428C7.66315 7.3908 7.76694 7.31279 7.85075 7.21557L9.153 5.70782C9.27793 5.55781 9.33896 5.36473 9.32296 5.17016C9.30695 4.9756 9.21519 4.79509 9.06742 4.66751C8.91965 4.53993 8.72769 4.47547 8.53287 4.48801C8.33805 4.50056 8.15594 4.58909 8.02575 4.73457L7.1745 5.72032L6.32325 4.73457C6.19419 4.58509 6.01103 4.493 5.81407 4.47856C5.61711 4.46412 5.42248 4.52851 5.273 4.65757C5.12352 4.78663 5.03143 4.96979 5.01699 5.16675C5.00255 5.36371 5.06694 5.55834 5.196 5.70782L6.49825 7.21582ZM22.5 14.5336C22.5 14.1263 22.3382 13.7358 22.0503 13.4478C21.7623 13.1598 21.3717 12.9981 20.9645 12.9981H3.0355C2.62826 12.9981 2.2377 13.1598 1.94974 13.4478C1.66178 13.7358 1.5 14.1263 1.5 14.5336V20.9628C1.50007 21.37 1.66187 21.7605 1.94983 22.0484C2.23778 22.3363 2.6283 22.4981 3.0355 22.4981H20.9648C21.3719 22.498 21.7624 22.3362 22.0504 22.0482C22.3383 21.7603 22.5 21.3698 22.5 20.9626V14.5336ZM21 20.9521C21 20.9776 3.046 20.9981 3.046 20.9981C3.0205 20.9981 3 14.4981 3 14.4981H21V20.9521Z" fill="#414141"/>
<path d="M8.02735 16.4322L7.1761 17.418L6.32485 16.4322C6.26155 16.3562 6.18374 16.2936 6.09596 16.248C6.00819 16.2023 5.91221 16.1747 5.81362 16.1666C5.71504 16.1585 5.61583 16.1701 5.52178 16.2007C5.42773 16.2314 5.34073 16.2805 5.26586 16.3451C5.19099 16.4097 5.12974 16.4887 5.0857 16.5772C5.04166 16.6658 5.01571 16.7623 5.00935 16.861C5.003 16.9597 5.01637 17.0587 5.04869 17.1522C5.08101 17.2456 5.13163 17.3318 5.1976 17.4055L6.49985 18.9135C6.5837 19.0107 6.68751 19.0886 6.80422 19.1421C6.92093 19.1955 7.04779 19.2232 7.17615 19.2231C7.30452 19.2231 7.43136 19.1954 7.54805 19.1419C7.66474 19.0884 7.76853 19.0104 7.85235 18.9132L9.1546 17.4055C9.27953 17.2554 9.34056 17.0624 9.32456 16.8678C9.30855 16.6732 9.21678 16.4927 9.06902 16.3652C8.92125 16.2376 8.72929 16.1731 8.53447 16.1857C8.33964 16.1982 8.15754 16.2867 8.02735 16.4322Z" fill="#414141"/>
</svg>
