<svg width="24" height="24" viewBox="0 0 24 24" fill="none" xmlns="http://www.w3.org/2000/svg">
<path d="M8.77801 14.9926H7.47001C7.37899 14.9924 7.29116 14.959 7.22291 14.8988C7.15467 14.8386 7.11066 14.7556 7.09909 14.6653C7.08752 14.575 7.10919 14.4836 7.16005 14.4081C7.21091 14.3326 7.28749 14.2782 7.37551 14.255C8.31676 14.0097 8.59164 13.6287 8.67489 13.313C8.33187 13.2352 8.01269 13.0758 7.74445 12.8483C7.47622 12.6208 7.26687 12.3319 7.13417 12.0061C7.00147 11.6804 6.94935 11.3275 6.98223 10.9773C7.01511 10.6271 7.13203 10.29 7.32305 9.99467C7.51407 9.69933 7.77355 9.45446 8.07945 9.28086C8.38535 9.10725 8.72863 9.01004 9.08013 8.99749C9.43163 8.98493 9.78098 9.0574 10.0985 9.20873C10.416 9.36006 10.6923 9.58579 10.9039 9.86674C11.286 10.4097 11.4832 11.0612 11.4664 11.7249C11.4664 13.3314 10.461 14.9926 8.77801 14.9926ZM9.08739 9.74712C8.89799 9.74405 8.70987 9.7787 8.53399 9.84906C8.35812 9.91942 8.19801 10.0241 8.06298 10.1569C7.92796 10.2898 7.82072 10.4482 7.74752 10.6229C7.67432 10.7976 7.63663 10.9851 7.63663 11.1746C7.63663 11.364 7.67432 11.5515 7.74752 11.7262C7.82072 11.9009 7.92796 12.0593 8.06298 12.1922C8.19801 12.325 8.35812 12.4297 8.53399 12.5001C8.70987 12.5704 8.89799 12.6051 9.08739 12.602C9.1374 12.602 9.18691 12.612 9.233 12.6314C9.2791 12.6508 9.32084 12.6792 9.35579 12.715C9.39073 12.7508 9.41816 12.7932 9.43647 12.8397C9.45477 12.8863 9.46359 12.936 9.46239 12.986C9.47869 13.4453 9.31198 13.8923 8.99889 14.2287C9.23832 14.193 9.46762 14.1076 9.67209 13.978C9.87655 13.8483 10.0516 13.6774 10.1861 13.4761C10.5369 12.9599 10.7218 12.3489 10.716 11.7249C10.716 10.7686 10.2885 9.74712 9.08739 9.74712ZM14.403 14.9926H13.095C13.004 14.9924 12.9162 14.959 12.8479 14.8988C12.7797 14.8386 12.7357 14.7556 12.7241 14.6653C12.7125 14.575 12.7342 14.4836 12.785 14.4081C12.8359 14.3326 12.9125 14.2782 13.0005 14.255C13.9418 14.0097 14.2166 13.6287 14.2999 13.313C13.9569 13.2352 13.6377 13.0758 13.3695 12.8483C13.1012 12.6208 12.8919 12.3319 12.7592 12.0061C12.6265 11.6804 12.5743 11.3275 12.6072 10.9773C12.6401 10.6271 12.757 10.29 12.9481 9.99467C13.1391 9.69933 13.3985 9.45446 13.7044 9.28086C14.0103 9.10725 14.3536 9.01004 14.7051 8.99749C15.0566 8.98493 15.406 9.0574 15.7235 9.20873C16.041 9.36006 16.3173 9.58579 16.5289 9.86674C16.911 10.4097 17.1082 11.0612 17.0914 11.7249C17.0914 13.3314 16.086 14.9926 14.403 14.9926ZM14.7124 9.74712C14.523 9.74405 14.3349 9.7787 14.159 9.84906C13.9831 9.91942 13.823 10.0241 13.688 10.1569C13.553 10.2898 13.4457 10.4482 13.3725 10.6229C13.2993 10.7976 13.2616 10.9851 13.2616 11.1746C13.2616 11.364 13.2993 11.5515 13.3725 11.7262C13.4457 11.9009 13.553 12.0593 13.688 12.1922C13.823 12.325 13.9831 12.4297 14.159 12.5001C14.3349 12.5704 14.523 12.6051 14.7124 12.602C14.7624 12.602 14.8119 12.612 14.858 12.6314C14.9041 12.6508 14.9458 12.6792 14.9808 12.715C15.0157 12.7508 15.0432 12.7932 15.0615 12.8397C15.0798 12.8863 15.0886 12.936 15.0874 12.986C15.1037 13.4453 14.937 13.8923 14.6239 14.2287C14.8633 14.193 15.0926 14.1076 15.2971 13.978C15.5015 13.8483 15.6766 13.6774 15.8111 13.4761C16.1619 12.9599 16.3468 12.3489 16.341 11.7249C16.341 10.7686 15.9135 9.74712 14.7124 9.74712Z" fill="#414141"/>
<path d="M1.81974 22.4257C1.65249 22.4257 1.61162 22.3451 1.54037 22.2049C1.49763 22.118 1.48846 22.0184 1.51462 21.9252C1.54078 21.832 1.60042 21.7517 1.68212 21.6997C3.52337 20.364 3.93474 18.1057 3.74649 17.7517C2.45574 16.0781 1.90224 14.3175 1.90224 11.8728C1.90224 9.83597 2.50625 7.84484 3.63788 6.15124C4.7695 4.45764 6.37793 3.13764 8.25976 2.35816C10.1416 1.57868 12.2123 1.37473 14.21 1.77211C16.2078 2.16948 18.0428 3.15033 19.4831 4.59062C20.9234 6.03091 21.9042 7.86595 22.3016 9.86369C22.699 11.8614 22.495 13.9321 21.7156 15.814C20.9361 17.6958 19.6161 19.3042 17.9225 20.4358C16.2289 21.5675 14.2377 22.1715 12.2009 22.1715C10.1267 22.1715 8.90349 21.8493 7.38024 20.898C6.91599 20.8616 4.66337 21.585 3.56912 21.9364C3.00361 22.1569 2.41761 22.3208 1.81974 22.4257ZM7.3615 20.1525C7.4934 20.1443 7.62487 20.1743 7.74025 20.2387C9.16262 21.1339 10.2464 21.4215 12.2009 21.4215C14.0894 21.4215 15.9355 20.8615 17.5058 19.8123C19.076 18.7631 20.2999 17.2718 21.0226 15.527C21.7453 13.7823 21.9345 11.8624 21.566 10.0101C21.1976 8.1579 20.2883 6.4565 18.9529 5.12108C17.6175 3.78567 15.9162 2.87622 14.0639 2.50774C12.2117 2.13927 10.2918 2.32831 8.54703 3.05096C6.80224 3.77362 5.31092 4.99743 4.26166 6.56764C3.2124 8.13786 2.65232 9.98395 2.65224 11.8725C2.65224 14.1682 3.14312 15.7413 4.34649 17.3025C4.54296 17.6524 4.59644 18.0648 4.49574 18.4534C4.31947 19.4833 3.88001 20.4502 3.21999 21.2602L3.33999 21.222C5.74262 20.4502 6.8215 20.1521 7.3615 20.1521V20.1525Z" fill="#414141"/>
</svg>
