<svg width="24" height="24" viewBox="0 0 24 24" fill="none" xmlns="http://www.w3.org/2000/svg">
<g clip-path="url(#clip0_23545_1099)">
<path d="M21.5235 24.0001H0.870485C0.408305 24.0001 0.0332031 23.625 0.0332031 23.1628C0.0332031 22.7006 0.408305 22.3255 0.870485 22.3255H21.5235C21.9857 22.3255 22.3608 22.7006 22.3608 23.1628C22.3608 23.625 21.9857 24.0001 21.5235 24.0001ZM12.6908 19.0054C12.4698 19.0054 12.2554 18.9171 12.099 18.7597L4.99436 11.6551C4.83146 11.4921 4.74108 11.2667 4.74888 11.0355C4.75788 10.8033 4.8605 10.5856 5.0346 10.4327L16.0925 0.757196C17.3049 -0.303536 19.1446 -0.243199 20.2854 0.896603L22.8576 3.46774C23.9974 4.60628 24.0577 6.44726 22.9972 7.65964L13.3216 18.7185C13.2461 18.8046 13.1537 18.8744 13.0503 18.9236C12.9468 18.9727 12.8343 19.0002 12.7198 19.0042C12.7085 19.0055 12.6998 19.0055 12.6908 19.0055V19.0054ZM6.81079 11.1048L12.6495 16.9433L21.7357 6.55883C22.2179 6.00727 22.1899 5.16998 21.6719 4.65202L19.101 2.08115C18.584 1.56313 17.7467 1.53513 17.1953 2.0173L6.81079 11.1048Z" fill="#414141"/>
<path d="M9.13869 20.1904C8.92199 20.1904 8.70654 20.1056 8.54689 19.9449L3.81017 15.208C3.55449 14.9535 3.4919 14.5639 3.65282 14.2414L5.2313 11.0829C5.43895 10.67 5.94142 10.5036 6.35431 10.7091C6.76871 10.9155 6.93611 11.419 6.72946 11.8321L5.41995 14.45L9.30384 18.3327L11.9218 17.0244C12.3359 16.8178 12.8371 16.9854 13.0448 17.3983C13.2525 17.8125 13.0839 18.3149 12.6697 18.5213L9.51253 20.1001C9.39702 20.1599 9.26876 20.1909 9.13869 20.1904Z" fill="#414141"/>
<path d="M6.3176 20.6494H1.57293C1.40761 20.6493 1.24603 20.6002 1.10855 20.5084C0.971075 20.4165 0.863864 20.2861 0.800435 20.1334C0.670865 19.8209 0.741145 19.4603 0.980136 19.2215L4.98789 15.2025C5.31391 14.8765 5.84417 14.8743 6.17243 15.2013C6.50054 15.5284 6.50054 16.0588 6.17468 16.3859L3.59031 18.9749H5.97154L7.36687 17.5793C7.69393 17.2523 8.22435 17.2523 8.55141 17.5793C8.87848 17.9053 8.87848 18.4366 8.55141 18.7637L6.91039 20.4049C6.75273 20.5614 6.53969 20.6492 6.3176 20.6494V20.6494Z" fill="#414141"/>
</g>
<defs>
<clipPath id="clip0_23545_1099">
<rect width="24" height="24" fill="white"/>
</clipPath>
</defs>
</svg>
