<svg width="70" height="60" viewBox="0 0 70 60" fill="none" xmlns="http://www.w3.org/2000/svg">
<g clip-path="url(#clip0_23507_563)">
<path d="M5.74414 9.47566V3.42344C5.74414 2.19527 6.73063 1.2002 7.9482 1.2002H62.5946C63.8122 1.2002 64.7986 2.19527 64.7986 3.42344V9.55336M64.7986 23.9097V56.5767C64.7986 57.8048 63.8122 58.8 62.5946 58.8H7.9482C6.73063 58.8 5.74414 57.8048 5.74414 56.5767V24.0242" stroke="url(#paint0_linear_23507_563)" stroke-miterlimit="10" stroke-linecap="round" stroke-linejoin="round"/>
<path d="M64.4319 9.875H6.11035" stroke="url(#paint1_linear_23507_563)" stroke-miterlimit="10" stroke-linecap="round" stroke-linejoin="round"/>
<path d="M19.6375 6.55981C20.1973 6.55981 20.6511 6.10209 20.6511 5.53747C20.6511 4.97285 20.1973 4.51514 19.6375 4.51514C19.0778 4.51514 18.624 4.97285 18.624 5.53747C18.624 6.10209 19.0778 6.55981 19.6375 6.55981Z" fill="url(#paint2_linear_23507_563)"/>
<path d="M15.0262 6.55981C15.586 6.55981 16.0397 6.10209 16.0397 5.53747C16.0397 4.97285 15.586 4.51514 15.0262 4.51514C14.4665 4.51514 14.0127 4.97285 14.0127 5.53747C14.0127 6.10209 14.4665 6.55981 15.0262 6.55981Z" fill="url(#paint3_linear_23507_563)"/>
<path d="M10.4159 6.55981C10.9756 6.55981 11.4294 6.10209 11.4294 5.53747C11.4294 4.97285 10.9756 4.51514 10.4159 4.51514C9.85611 4.51514 9.40234 4.97285 9.40234 5.53747C9.40234 6.10209 9.85611 6.55981 10.4159 6.55981Z" fill="url(#paint4_linear_23507_563)"/>
<path d="M68.8522 14.1566V11.2381C68.8522 10.4857 68.2467 9.875 67.5008 9.875H64.4319H6.10976H3.04082C2.29487 9.875 1.68945 10.4857 1.68945 11.2381V22.2276C1.68945 22.9813 2.29487 23.5906 3.04082 23.5906H67.5008C68.2467 23.5906 68.8522 22.9813 68.8522 22.2276V18.9274" stroke="url(#paint5_linear_23507_563)" stroke-miterlimit="10" stroke-linecap="round" stroke-linejoin="round"/>
<path d="M62.3397 16.0515C62.8994 16.0515 63.3532 15.5938 63.3532 15.0292C63.3532 14.4646 62.8994 14.0068 62.3397 14.0068C61.7799 14.0068 61.3262 14.4646 61.3262 15.0292C61.3262 15.5938 61.7799 16.0515 62.3397 16.0515Z" fill="url(#paint6_linear_23507_563)"/>
<path d="M62.3397 19.4592C62.8994 19.4592 63.3532 19.0015 63.3532 18.4369C63.3532 17.8723 62.8994 17.4146 62.3397 17.4146C61.7799 17.4146 61.3262 17.8723 61.3262 18.4369C61.3262 19.0015 61.7799 19.4592 62.3397 19.4592Z" fill="url(#paint7_linear_23507_563)"/>
<path d="M8.20215 15.0293H14.3072" stroke="url(#paint8_linear_23507_563)" stroke-miterlimit="10" stroke-linecap="round" stroke-linejoin="round"/>
<path d="M8.20215 18.437H14.3072" stroke="url(#paint9_linear_23507_563)" stroke-miterlimit="10" stroke-linecap="round" stroke-linejoin="round"/>
<path d="M52.8561 17.8844C53.9518 17.8844 54.8402 16.9884 54.8402 15.8831C54.8402 14.7778 53.9518 13.8818 52.8561 13.8818C51.7604 13.8818 50.8721 14.7778 50.8721 15.8831C50.8721 16.9884 51.7604 17.8844 52.8561 17.8844Z" stroke="url(#paint10_linear_23507_563)" stroke-miterlimit="10" stroke-linecap="round" stroke-linejoin="round"/>
<path d="M54.2588 17.2979L56.5251 19.584" stroke="url(#paint11_linear_23507_563)" stroke-miterlimit="10" stroke-linecap="round" stroke-linejoin="round"/>
<path d="M29.383 19.5872H38.6006C38.975 19.5872 39.2763 19.2819 39.2763 18.9057V14.5615C39.2763 14.1853 38.975 13.8799 38.6006 13.8799H20.164C19.791 13.8799 19.4883 14.1853 19.4883 14.5615V18.9057C19.4883 19.2819 19.791 19.5872 20.164 19.5872H24.6532" stroke="url(#paint12_linear_23507_563)" stroke-miterlimit="10" stroke-linecap="round" stroke-linejoin="round"/>
<path d="M47.262 40.5803H58.1756C58.5499 40.5803 58.8512 40.275 58.8512 39.8987V30.4565C58.8512 30.0802 58.5499 29.7749 58.1756 29.7749H12.3671C11.9928 29.7749 11.6914 30.0802 11.6914 30.4565V39.8987C11.6914 40.275 11.9928 40.5803 12.3671 40.5803H42.5323" stroke="url(#paint13_linear_23507_563)" stroke-miterlimit="10" stroke-linecap="round" stroke-linejoin="round"/>
<path d="M21.2861 52.6155H32.0672C32.4402 52.6155 32.7429 52.3116 32.7429 51.9339V45.9199C32.7429 45.5437 32.4402 45.2383 32.0672 45.2383H12.3671C11.9928 45.2383 11.6914 45.5437 11.6914 45.9199V51.9339C11.6914 52.3116 11.9928 52.6155 12.3671 52.6155H16.5564" stroke="url(#paint14_linear_23507_563)" stroke-miterlimit="10" stroke-linecap="round" stroke-linejoin="round"/>
<path d="M58.176 52.6159H38.4755C38.1025 52.6159 37.7998 52.3106 37.7998 51.9343V45.9194C37.7998 45.5431 38.1025 45.2378 38.4755 45.2378H58.176C58.5491 45.2378 58.8516 45.5431 58.8516 45.9194V51.9343C58.8516 52.3107 58.5491 52.6159 58.176 52.6159Z" stroke="url(#paint15_linear_23507_563)" stroke-miterlimit="10" stroke-linecap="round" stroke-linejoin="round"/>
</g>
<defs>
<linearGradient id="paint0_linear_23507_563" x1="9.74978" y1="35.1486" x2="54.9426" y2="23.562" gradientUnits="userSpaceOnUse">
<stop stop-color="#CE9400"/>
<stop offset="0.504191" stop-color="#FF008A"/>
<stop offset="1" stop-color="#6100FF"/>
</linearGradient>
<linearGradient id="paint1_linear_23507_563" x1="10.0663" y1="10.4644" x2="10.2889" y2="7.21822" gradientUnits="userSpaceOnUse">
<stop stop-color="#CE9400"/>
<stop offset="0.504191" stop-color="#FF008A"/>
<stop offset="1" stop-color="#6100FF"/>
</linearGradient>
<linearGradient id="paint2_linear_23507_563" x1="18.7615" y1="5.72023" x2="20.319" y2="5.33412" gradientUnits="userSpaceOnUse">
<stop stop-color="#CE9400"/>
<stop offset="0.504191" stop-color="#FF008A"/>
<stop offset="1" stop-color="#6100FF"/>
</linearGradient>
<linearGradient id="paint3_linear_23507_563" x1="14.1502" y1="5.72023" x2="15.7077" y2="5.33412" gradientUnits="userSpaceOnUse">
<stop stop-color="#CE9400"/>
<stop offset="0.504191" stop-color="#FF008A"/>
<stop offset="1" stop-color="#6100FF"/>
</linearGradient>
<linearGradient id="paint4_linear_23507_563" x1="9.53984" y1="5.72023" x2="11.0973" y2="5.33412" gradientUnits="userSpaceOnUse">
<stop stop-color="#CE9400"/>
<stop offset="0.504191" stop-color="#FF008A"/>
<stop offset="1" stop-color="#6100FF"/>
</linearGradient>
<linearGradient id="paint5_linear_23507_563" x1="6.24506" y1="17.9588" x2="28.1602" y2="-8.87695" gradientUnits="userSpaceOnUse">
<stop stop-color="#CE9400"/>
<stop offset="0.504191" stop-color="#FF008A"/>
<stop offset="1" stop-color="#6100FF"/>
</linearGradient>
<linearGradient id="paint6_linear_23507_563" x1="61.4637" y1="15.2119" x2="63.0212" y2="14.8258" gradientUnits="userSpaceOnUse">
<stop stop-color="#CE9400"/>
<stop offset="0.504191" stop-color="#FF008A"/>
<stop offset="1" stop-color="#6100FF"/>
</linearGradient>
<linearGradient id="paint7_linear_23507_563" x1="61.4637" y1="18.6196" x2="63.0212" y2="18.2335" gradientUnits="userSpaceOnUse">
<stop stop-color="#CE9400"/>
<stop offset="0.504191" stop-color="#FF008A"/>
<stop offset="1" stop-color="#6100FF"/>
</linearGradient>
<linearGradient id="paint8_linear_23507_563" x1="8.61625" y1="15.6187" x2="10.1112" y2="13.3364" gradientUnits="userSpaceOnUse">
<stop stop-color="#CE9400"/>
<stop offset="0.504191" stop-color="#FF008A"/>
<stop offset="1" stop-color="#6100FF"/>
</linearGradient>
<linearGradient id="paint9_linear_23507_563" x1="8.61625" y1="19.0264" x2="10.1112" y2="16.7442" gradientUnits="userSpaceOnUse">
<stop stop-color="#CE9400"/>
<stop offset="0.504191" stop-color="#FF008A"/>
<stop offset="1" stop-color="#6100FF"/>
</linearGradient>
<linearGradient id="paint10_linear_23507_563" x1="51.1412" y1="16.2409" x2="54.1901" y2="15.4851" gradientUnits="userSpaceOnUse">
<stop stop-color="#CE9400"/>
<stop offset="0.504191" stop-color="#FF008A"/>
<stop offset="1" stop-color="#6100FF"/>
</linearGradient>
<linearGradient id="paint11_linear_23507_563" x1="54.4125" y1="18.6453" x2="56.1538" y2="18.2136" gradientUnits="userSpaceOnUse">
<stop stop-color="#CE9400"/>
<stop offset="0.504191" stop-color="#FF008A"/>
<stop offset="1" stop-color="#6100FF"/>
</linearGradient>
<linearGradient id="paint12_linear_23507_563" x1="20.8305" y1="17.2437" x2="30.0435" y2="9.25584" gradientUnits="userSpaceOnUse">
<stop stop-color="#CE9400"/>
<stop offset="0.504191" stop-color="#FF008A"/>
<stop offset="1" stop-color="#6100FF"/>
</linearGradient>
<linearGradient id="paint13_linear_23507_563" x1="14.8902" y1="36.1434" x2="32.4435" y2="16.9856" gradientUnits="userSpaceOnUse">
<stop stop-color="#CE9400"/>
<stop offset="0.504191" stop-color="#FF008A"/>
<stop offset="1" stop-color="#6100FF"/>
</linearGradient>
<linearGradient id="paint14_linear_23507_563" x1="13.1193" y1="49.5863" x2="24.4956" y2="41.4684" gradientUnits="userSpaceOnUse">
<stop stop-color="#CE9400"/>
<stop offset="0.504191" stop-color="#FF008A"/>
<stop offset="1" stop-color="#6100FF"/>
</linearGradient>
<linearGradient id="paint15_linear_23507_563" x1="39.2277" y1="49.5863" x2="50.6049" y2="41.4685" gradientUnits="userSpaceOnUse">
<stop stop-color="#CE9400"/>
<stop offset="0.504191" stop-color="#FF008A"/>
<stop offset="1" stop-color="#6100FF"/>
</linearGradient>
<clipPath id="clip0_23507_563">
<rect width="69" height="60" fill="white" transform="translate(0.5)"/>
</clipPath>
</defs>
</svg>
