<svg width="24" height="24" viewBox="0 0 24 24" fill="none" xmlns="http://www.w3.org/2000/svg">
<g clip-path="url(#clip0_23545_1106)">
<path d="M22.8029 20.7142H6.75419C6.59692 20.7142 6.4412 20.6833 6.29591 20.6231C6.15061 20.5629 6.0186 20.4747 5.90739 20.3635C5.79619 20.2523 5.70798 20.1203 5.6478 19.975C5.58762 19.8297 5.55664 19.6739 5.55664 19.5167C5.55664 19.3594 5.58762 19.2037 5.6478 19.0584C5.70798 18.9131 5.79619 18.7811 5.90739 18.6699C6.0186 18.5587 6.15061 18.4705 6.29591 18.4103C6.4412 18.3501 6.59692 18.3191 6.75419 18.3191H22.8025C23.1201 18.3191 23.4247 18.4452 23.6493 18.6697C23.874 18.8943 24.0002 19.1989 24.0002 19.5165C24.0003 19.8341 23.8742 20.1387 23.6496 20.3633C23.4251 20.588 23.1205 20.7142 22.8029 20.7142ZM22.8029 13.1972H6.75419C6.43658 13.1972 6.13198 13.0711 5.90739 12.8465C5.68281 12.6219 5.55664 12.3173 5.55664 11.9997C5.55664 11.6821 5.68281 11.3775 5.90739 11.1529C6.13198 10.9283 6.43658 10.8021 6.75419 10.8021H22.8025C23.1201 10.8021 23.4247 10.9282 23.6493 11.1528C23.874 11.3773 24.0002 11.6819 24.0002 11.9995C24.0003 12.3171 23.8742 12.6217 23.6496 12.8463C23.4251 13.071 23.1205 13.1972 22.8029 13.1972ZM22.8029 5.68025H6.75419C6.59692 5.68025 6.4412 5.64927 6.29591 5.58909C6.15061 5.52891 6.0186 5.4407 5.90739 5.32949C5.79619 5.21829 5.70798 5.08627 5.6478 4.94098C5.58762 4.79569 5.55664 4.63997 5.55664 4.4827C5.55664 4.32544 5.58762 4.16971 5.6478 4.02442C5.70798 3.87913 5.79619 3.74711 5.90739 3.63591C6.0186 3.52471 6.15061 3.4365 6.29591 3.37631C6.4412 3.31613 6.59692 3.28516 6.75419 3.28516H22.8025C23.1201 3.2851 23.4247 3.41122 23.6493 3.63577C23.874 3.86031 24.0002 4.16489 24.0002 4.4825C24.0003 4.80011 23.8742 5.10473 23.6496 5.32935C23.4251 5.55397 23.1205 5.68019 22.8029 5.68025Z" fill="#414141"/>
<path d="M1.6083 6.18536C2.49654 6.18536 3.21661 5.46529 3.21661 4.57705C3.21661 3.68881 2.49654 2.96875 1.6083 2.96875C0.720062 2.96875 0 3.68881 0 4.57705C0 5.46529 0.720062 6.18536 1.6083 6.18536Z" fill="#414141"/>
<path d="M1.6083 13.6111C2.49654 13.6111 3.21661 12.8911 3.21661 12.0028C3.21661 11.1146 2.49654 10.3945 1.6083 10.3945C0.720062 10.3945 0 11.1146 0 12.0028C0 12.8911 0.720062 13.6111 1.6083 13.6111Z" fill="#414141"/>
<path d="M1.6083 21.033C2.49654 21.033 3.21661 20.313 3.21661 19.4247C3.21661 18.5365 2.49654 17.8164 1.6083 17.8164C0.720062 17.8164 0 18.5365 0 19.4247C0 20.313 0.720062 21.033 1.6083 21.033Z" fill="#414141"/>
</g>
<defs>
<clipPath id="clip0_23545_1106">
<rect width="24" height="24" fill="white"/>
</clipPath>
</defs>
</svg>
