<svg width="24" height="24" viewBox="0 0 24 24" fill="none" xmlns="http://www.w3.org/2000/svg">
<path d="M21.2499 3.99994C21.2499 5.79492 19.7949 7.25006 17.9999 7.25006C16.205 7.25006 14.75 5.79492 14.75 3.99994C14.75 2.20514 16.205 0.75 17.9999 0.75C19.7949 0.75 21.2499 2.20514 21.2499 3.99994Z" fill="#414141"/>
<path d="M17.9999 8.00006C15.7939 8.00006 14 6.20602 14 3.99994C14 1.79405 15.7939 0 17.9999 0C20.206 0 21.9999 1.79405 21.9999 3.99994C21.9999 6.20602 20.206 8.00006 17.9999 8.00006ZM17.9999 1.5C16.621 1.5 15.5 2.62209 15.5 3.99994C15.5 5.37797 16.621 6.50006 17.9999 6.50006C19.3789 6.50006 20.4999 5.37797 20.4999 3.99994C20.4999 2.62209 19.3789 1.5 17.9999 1.5ZM21.2499 20.0001C21.2499 21.7949 19.7949 23.25 17.9999 23.25C16.205 23.25 14.75 21.7949 14.75 20.0001C14.75 18.2051 16.205 16.7499 17.9999 16.7499C19.7949 16.7499 21.2499 18.2051 21.2499 20.0001Z" fill="#414141"/>
<path d="M18 23.9999C15.7939 23.9999 14.0001 22.2059 14.0001 20C14.0001 17.7939 15.794 15.9999 18 15.9999C20.206 15.9999 21.9999 17.7939 21.9999 20C21.9999 22.2059 20.206 23.9999 18 23.9999ZM18 17.4999C16.621 17.4999 15.5001 18.622 15.5001 20C15.5001 21.3779 16.621 22.4999 18 22.4999C19.379 22.4999 20.4999 21.3778 20.4999 20C20.4999 18.622 19.379 17.4999 18 17.4999ZM7.25006 11.9999C7.25006 13.7949 5.79492 15.2499 3.99994 15.2499C2.20514 15.2499 0.75 13.7949 0.75 11.9999C0.75 10.205 2.20514 8.75 3.99994 8.75C5.79492 8.75 7.25006 10.205 7.25006 11.9999Z" fill="#414141"/>
<path d="M3.99994 15.9999C1.79405 15.9999 0 14.206 0 11.9999C0 9.79391 1.79405 8 3.99994 8C6.20602 8 8.00006 9.79391 8.00006 11.9999C8.00006 14.206 6.20602 15.9999 3.99994 15.9999ZM3.99994 9.5C2.62097 9.5 1.5 10.6219 1.5 11.9999C1.5 13.378 2.62097 14.4999 3.99994 14.4999C5.37909 14.4999 6.50006 13.378 6.50006 11.9999C6.50006 10.6219 5.37909 9.5 3.99994 9.5Z" fill="#414141"/>
<path d="M6.36037 11.5178C6.01228 11.5178 5.67426 11.3367 5.49028 11.0128C5.21723 10.5338 5.38533 9.92278 5.86434 9.64871L15.1432 4.35877C15.6222 4.08375 16.2332 4.25185 16.5073 4.73269C16.7804 5.21166 16.6123 5.82272 16.1332 6.0968L6.8542 11.3867C6.70384 11.4727 6.5336 11.5179 6.36037 11.5178ZM15.6383 19.7678C15.4702 19.7678 15.3003 19.7257 15.1443 19.6367L5.86533 14.3468C5.38626 14.0738 5.2184 13.4627 5.4914 12.9827C5.76328 12.5027 6.37528 12.3338 6.85537 12.6088L16.1344 17.8987C16.6134 18.1717 16.7813 18.7828 16.5083 19.2628C16.3234 19.5867 15.9854 19.7678 15.6384 19.7678H15.6383Z" fill="#414141"/>
</svg>
