<svg width="24" height="24" viewBox="0 0 24 24" fill="none" xmlns="http://www.w3.org/2000/svg">
<g clip-path="url(#clip0_23545_1129)">
<path d="M21.375 5.25H2.625C1.1625 5.25 0 4.0875 0 2.625C0 1.1625 1.1625 0 2.625 0H16.0125C16.2375 0 16.3875 0.15 16.3875 0.375C16.3875 0.6 16.2375 0.75 16.0125 0.75H2.625C1.575 0.75 0.75 1.575 0.75 2.625C0.75 3.675 1.575 4.5 2.625 4.5H21.375C22.425 4.5 23.25 3.675 23.25 2.625C23.25 1.575 22.425 0.75 21.375 0.75H17.7375C17.5125 0.75 17.3625 0.6 17.3625 0.375C17.3625 0.15 17.5125 0 17.7375 0H21.375C22.8375 0 24 1.1625 24 2.625C24 4.0875 22.8375 5.25 21.375 5.25Z" fill="#414141"/>
<path d="M9.825 3.75H2.625C1.9875 3.75 1.5 3.2625 1.5 2.625C1.5 1.9875 1.9875 1.5 2.625 1.5H9.825C10.05 1.5 10.2 1.65 10.2 1.875V3.375C10.2 3.6 10.05 3.75 9.825 3.75ZM2.625 2.25C2.4 2.25 2.25 2.4 2.25 2.625C2.25 2.85 2.4 3 2.625 3H9.45V2.25H2.625ZM21.375 11.5125H2.625C1.1625 11.5125 0 10.35 0 8.8875C0 7.425 1.1625 6.2625 2.625 6.2625H15C15.225 6.2625 15.375 6.4125 15.375 6.6375C15.375 6.8625 15.225 7.0125 15 7.0125H2.625C1.575 7.0125 0.75 7.8375 0.75 8.8875C0.75 9.9375 1.575 10.7625 2.625 10.7625H21.375C22.425 10.7625 23.25 9.9375 23.25 8.8875C23.25 7.8375 22.425 7.0125 21.375 7.0125H16.8C16.575 7.0125 16.425 6.8625 16.425 6.6375C16.425 6.4125 16.575 6.2625 16.8 6.2625H21.375C22.8375 6.2625 24 7.425 24 8.8875C24 10.35 22.8375 11.5125 21.375 11.5125Z" fill="#414141"/>
<path d="M15.975 10.0117H2.625C1.9875 10.0117 1.5 9.52422 1.5 8.88672C1.5 8.24922 1.9875 7.76172 2.625 7.76172H15.975C16.2 7.76172 16.35 7.91172 16.35 8.13672V9.63672C16.35 9.86172 16.2 10.0117 15.975 10.0117ZM2.625 8.51172C2.4 8.51172 2.25 8.66172 2.25 8.88672C2.25 9.11172 2.4 9.26172 2.625 9.26172H15.6V8.51172H2.625ZM21.375 17.7742H2.625C1.1625 17.7742 0 16.6117 0 15.1492C0 13.6867 1.1625 12.5242 2.625 12.5242H15.7125C15.9375 12.5242 16.0875 12.6742 16.0875 12.8992C16.0875 13.1242 15.9375 13.2742 15.7125 13.2742H2.625C1.575 13.2742 0.75 14.0992 0.75 15.1492C0.75 16.1992 1.575 17.0242 2.625 17.0242H21.375C22.425 17.0242 23.25 16.1992 23.25 15.1492C23.25 14.0992 22.425 13.2742 21.375 13.2742H17.2875C17.0625 13.2742 16.9125 13.1242 16.9125 12.8992C16.9125 12.6742 17.0625 12.5242 17.2875 12.5242H21.375C22.8375 12.5242 24 13.6867 24 15.1492C24 16.6117 22.8375 17.7742 21.375 17.7742Z" fill="#414141"/>
<path d="M12.375 16.2734H2.625C1.9875 16.2734 1.5 15.7859 1.5 15.1484C1.5 14.5109 1.9875 14.0234 2.625 14.0234H12.3375C12.525 14.0234 12.7125 14.1734 12.7125 14.3984L12.75 15.8984C12.75 16.0109 12.7125 16.0859 12.6375 16.1609C12.5625 16.2359 12.4875 16.2734 12.375 16.2734ZM2.625 14.7734C2.4 14.7734 2.25 14.9234 2.25 15.1484C2.25 15.3734 2.4 15.5234 2.625 15.5234H12V14.7734H2.625ZM21.375 23.9984H2.625C1.1625 23.9984 0 22.8359 0 21.3734C0 19.9109 1.1625 18.7484 2.625 18.7484H7.05C7.275 18.7484 7.425 18.8984 7.425 19.1234C7.425 19.3484 7.275 19.4984 7.05 19.4984H2.625C1.575 19.4984 0.75 20.3234 0.75 21.3734C0.75 22.4234 1.575 23.2484 2.625 23.2484H21.375C22.425 23.2484 23.25 22.4234 23.25 21.3734C23.25 20.3234 22.425 19.4984 21.375 19.4984H9.075C8.85 19.4984 8.7 19.3484 8.7 19.1234C8.7 18.8984 8.85 18.7484 9.075 18.7484H21.375C22.8375 18.7484 24 19.9109 24 21.3734C24 22.8359 22.8375 23.9984 21.375 23.9984Z" fill="#414141"/>
<path d="M19.875 22.5H2.625C1.9875 22.5 1.5 22.0125 1.5 21.375C1.5 20.7375 1.9875 20.25 2.625 20.25H19.875C20.1 20.25 20.25 20.4 20.25 20.625V22.125C20.25 22.35 20.1 22.5 19.875 22.5ZM2.625 21C2.4 21 2.25 21.15 2.25 21.375C2.25 21.6 2.4 21.75 2.625 21.75H19.5V21H2.625Z" fill="#414141"/>
</g>
<defs>
<clipPath id="clip0_23545_1129">
<rect width="24" height="24" fill="white"/>
</clipPath>
</defs>
</svg>
