<svg width="24" height="24" viewBox="0 0 24 24" fill="none" xmlns="http://www.w3.org/2000/svg">
<g clip-path="url(#clip0_23545_1138)">
<path d="M7.72807 4.05458H22.8648C23.4918 4.05458 24.0001 3.54628 24.0001 2.91932C24.0001 2.29235 23.4918 1.78406 22.8648 1.78406H7.72807C7.1011 1.78406 6.59281 2.29235 6.59281 2.91932C6.59281 3.54628 7.1011 4.05458 7.72807 4.05458ZM22.8648 10.8661H7.72807C7.1011 10.8661 6.59281 11.3744 6.59281 12.0014C6.59281 12.6283 7.1011 13.1366 7.72807 13.1366H22.8648C23.4918 13.1366 24.0001 12.6283 24.0001 12.0014C24.0001 11.3743 23.4919 10.8661 22.8648 10.8661ZM22.8648 19.9482H7.72807C7.1011 19.9482 6.59281 20.4565 6.59281 21.0834C6.59281 21.7104 7.1011 22.2187 7.72807 22.2187H22.8648C23.4918 22.2187 24.0001 21.7104 24.0001 21.0834C24.0001 20.4565 23.4919 19.9482 22.8648 19.9482ZM1.34921 3.71256V6.55554C1.34921 6.86388 1.60048 7.09638 1.9338 7.09638C2.26151 7.09638 2.51815 6.85881 2.51815 6.55554V2.30409C2.51815 2.00438 2.2724 1.76953 1.9587 1.76953C1.68275 1.76953 1.54471 1.95465 1.49937 2.0155L1.49369 2.02337L0.999782 2.72209C0.903891 2.82638 0.818595 2.99319 0.818595 3.15318C0.81852 3.45819 1.05571 3.70696 1.34921 3.71256ZM0.577543 14.6648H2.8031C3.09441 14.6648 3.33145 14.4081 3.33145 14.0927C3.33145 13.7805 3.09448 13.5266 2.8031 13.5266H1.1871V13.5173C1.1871 13.3474 1.57672 13.0724 1.88982 12.8515C2.51262 12.412 3.2877 11.8651 3.2877 10.9167C3.2877 10.0166 2.5902 9.33791 1.66519 9.33791C0.779467 9.33791 0.111634 9.94671 0.111634 10.754C0.111634 11.2225 0.416563 11.3888 0.677672 11.3888C1.0514 11.3888 1.27474 11.1105 1.27474 10.8416C1.27474 10.6744 1.31773 10.4825 1.65271 10.4825C2.10522 10.4825 2.11824 10.8834 2.11824 10.9292C2.11824 11.2896 1.65051 11.6265 1.19815 11.9523C0.638998 12.355 0.00522218 12.8116 0.00522218 13.5175V14.1238C0.0051465 14.4474 0.301146 14.6648 0.577543 14.6648ZM3.21255 18.3761C3.21255 17.442 2.66096 16.9063 1.69933 16.9063C0.438436 16.9063 0.105276 17.8068 0.105276 18.2829C0.105276 18.8372 0.517374 18.8971 0.69455 18.8971C1.03959 18.8971 1.27134 18.6652 1.27134 18.3202C1.27134 18.1875 1.31856 18.0351 1.68661 18.0351C1.95113 18.0351 2.05883 18.0732 2.05883 18.4565C2.05883 18.831 1.97845 18.8718 1.66186 18.8718C1.35777 18.8718 1.12852 19.1118 1.12852 19.43C1.12852 19.7447 1.36057 19.9821 1.66822 19.9821C2.08637 19.9821 2.17038 20.1529 2.17038 20.4285V20.5464C2.17038 21.0101 1.98957 21.098 1.65588 21.098C1.1955 21.098 1.1597 20.8609 1.1597 20.7883C1.1597 20.5134 0.977531 20.2361 0.570504 20.2361C0.213277 20.2361 0 20.4587 0 20.8317C0 21.511 0.582462 22.2331 1.66186 22.2331C2.71039 22.2331 3.33644 21.6025 3.33644 20.5464V20.4285C3.33644 19.9955 3.19794 19.6364 2.93804 19.3783C3.11605 19.1207 3.21255 18.777 3.21255 18.3761Z" fill="#414141"/>
</g>
<defs>
<clipPath id="clip0_23545_1138">
<rect width="24" height="24" fill="white"/>
</clipPath>
</defs>
</svg>
