<svg width="24" height="24" viewBox="0 0 24 24" fill="none" xmlns="http://www.w3.org/2000/svg">
<g clip-path="url(#clip0_23545_1150)">
<path d="M5.14912 21.0245L3.97517 22.8308C3.74795 23.183 3.84642 23.6526 4.19861 23.8798C4.32736 23.9631 4.46751 24.001 4.61138 24.001C4.86131 24.001 5.10371 23.8798 5.24759 23.6564L6.39503 21.8916C8.03854 22.8687 9.95475 23.433 11.9997 23.433C14.0485 23.433 15.9646 22.8687 17.6044 21.8879L18.748 23.6527C18.8919 23.8761 19.1381 23.9973 19.3843 23.9973C19.5244 23.9973 19.6683 23.9594 19.797 23.8761C20.1492 23.6489 20.2477 23.1793 20.0205 22.8271L18.8503 21.0208C21.3648 19.0099 22.9818 15.9159 22.9818 12.4509C22.9818 6.39555 18.055 1.46875 11.9997 1.46875C5.94438 1.46875 1.01758 6.39549 1.01758 12.4508C1.01758 15.9159 2.63459 19.0098 5.14912 21.0245ZM11.9997 2.98344C17.2219 2.98344 21.4671 7.22862 21.4671 12.4508C21.4671 17.673 17.2219 21.9182 11.9997 21.9182C6.77752 21.9182 2.53233 17.673 2.53233 12.4508C2.53233 7.22862 6.77752 2.98344 11.9997 2.98344Z" fill="#414141"/>
<path d="M14.5297 15.6726C14.6736 15.7975 14.8516 15.8581 15.0296 15.8581C15.1377 15.8583 15.2447 15.8354 15.3433 15.791C15.4419 15.7466 15.5299 15.6817 15.6014 15.6006C15.8778 15.2863 15.8438 14.8091 15.5295 14.5327L12.7574 12.1052V6.01203C12.7574 5.59546 12.4166 5.25466 12 5.25466C11.5835 5.25466 11.2427 5.59546 11.2427 6.01203V12.4499C11.2427 12.6695 11.3373 12.8778 11.5002 13.0217L14.5297 15.6726ZM2.53264 3.94057C2.72958 3.94057 2.92651 3.86481 3.07418 3.71334C3.97549 2.79312 4.99797 2.02436 6.10754 1.42604C6.47484 1.22911 6.61498 0.770925 6.41805 0.399763C6.22112 0.0324582 5.76294 -0.107684 5.39177 0.0892487C4.14213 0.759541 2.99848 1.61918 1.98738 2.65304C1.69577 2.95224 1.69957 3.43312 1.99876 3.72473C2.15016 3.86866 2.3433 3.94057 2.53264 3.94057ZM17.8925 1.42604C19.0059 2.02057 20.0246 2.79312 20.9259 3.71334C21.0735 3.86481 21.2705 3.94057 21.4674 3.94057C21.6655 3.94038 21.8557 3.86295 21.9976 3.72473C22.2968 3.43312 22.3005 2.95217 22.0089 2.65304C21.0016 1.62297 19.8542 0.759541 18.6045 0.0893119C18.2334 -0.107621 17.7751 0.0325214 17.5782 0.399826C17.3851 0.770925 17.5214 1.22911 17.8925 1.42604Z" fill="#414141"/>
</g>
<defs>
<clipPath id="clip0_23545_1150">
<rect width="24" height="24" fill="white"/>
</clipPath>
</defs>
</svg>
