<svg width="24" height="24" viewBox="0 0 24 24" fill="none" xmlns="http://www.w3.org/2000/svg">
<g clip-path="url(#clip0_23545_1164)">
<path d="M23.9953 5.91885C23.9814 5.7907 23.9347 5.66829 23.8597 5.56345C23.7847 5.45862 23.6839 5.37489 23.5671 5.32035L12.3171 0.0703493C12.2178 0.0240129 12.1095 0 12 0C11.8904 0 11.7821 0.0240129 11.6828 0.0703493L0.432797 5.32035C0.316004 5.3749 0.215243 5.45863 0.140238 5.56347C0.0652324 5.6683 0.0185149 5.7907 0.00459375 5.91885C0.00279978 5.94588 0.00126845 5.97293 5.75795e-10 5.99999L5.75795e-10 18.75C-5.87192e-06 18.8999 0.0449082 19.0463 0.128947 19.1705C0.212985 19.2946 0.332291 19.3907 0.471469 19.4463L11.7215 23.9463C11.9003 24.0179 12.0997 24.0179 12.2785 23.9463L23.5285 19.4463C23.6677 19.3907 23.787 19.2946 23.8711 19.1705C23.9551 19.0463 24 18.8999 24 18.75V5.99999C24 5.99605 23.9959 5.92419 23.9953 5.91885ZM12 1.57761L21.363 5.94702L17.7577 7.38918L8.21845 3.34237L12 1.57761ZM6.38953 4.19587L15.7808 8.17991L12 9.69219L2.637 5.94702L6.38953 4.19587ZM1.5 7.10774L11.25 11.0077V22.1422L1.5 18.2422V7.10774ZM12.75 22.1422V11.0077L22.5 7.10774V18.2422L12.75 22.1422Z" fill="#414141"/>
</g>
<defs>
<clipPath id="clip0_23545_1164">
<rect width="24" height="24" fill="white"/>
</clipPath>
</defs>
</svg>
