<svg width="68" height="60" viewBox="0 0 68 60" fill="none" xmlns="http://www.w3.org/2000/svg">
<path d="M35.4462 18.1431H55.7283C56.1805 18.1432 56.6136 18.3223 56.9326 18.6411L56.9339 18.6424C57.2533 18.9608 57.433 19.393 57.4331 19.8448C57.4331 20.2967 57.2535 20.73 56.9339 21.0485L56.9326 21.0498C56.6136 21.3685 56.1805 21.5477 55.7283 21.5478H35.4462C34.9939 21.5478 34.5599 21.3687 34.2408 21.0498L34.2395 21.0485C33.9199 20.73 33.7402 20.2967 33.7402 19.8448C33.7404 19.3932 33.92 18.9606 34.2395 18.6424L34.2408 18.6411C34.5599 18.3222 34.9938 18.1431 35.4462 18.1431Z" stroke="url(#paint0_linear_23507_582)"/>
<path d="M35.4464 27.5615H55.7283C56.1806 27.5617 56.6136 27.7409 56.9326 28.0595L56.9339 28.0608C57.2535 28.3792 57.433 28.8116 57.4333 29.2633C57.4333 29.7151 57.2536 30.1484 56.9339 30.467L56.9326 30.4683C56.6136 30.7869 56.1806 30.9661 55.7283 30.9663H35.4464C34.9939 30.9663 34.5599 30.7872 34.2408 30.4683L34.2395 30.467C33.9199 30.1484 33.7402 29.7151 33.7402 29.2633C33.7404 28.8116 33.92 28.3792 34.2395 28.0608L34.2408 28.0595C34.5599 27.7406 34.9939 27.5615 35.4464 27.5615Z" stroke="url(#paint1_linear_23507_582)"/>
<path d="M35.4464 36.979H55.7283C56.1806 36.9791 56.6136 37.1584 56.9326 37.477L56.9339 37.4783C57.2535 37.7967 57.433 38.2291 57.4333 38.6808C57.4333 39.1327 57.2536 39.5659 56.9339 39.8844L56.9326 39.8857C56.6136 40.2044 56.1806 40.3836 55.7283 40.3837H35.4464C34.9939 40.3837 34.5599 40.2047 34.2408 39.8857L34.2395 39.8844C33.9199 39.5659 33.7402 39.1326 33.7402 38.6808C33.7404 38.2291 33.92 37.7967 34.2395 37.4783L34.2408 37.477C34.5599 37.1581 34.9939 36.979 35.4464 36.979Z" stroke="url(#paint2_linear_23507_582)"/>
<path d="M35.4464 46.3979H55.7283C56.1806 46.3981 56.6136 46.5773 56.9326 46.896L56.9339 46.8973C57.2535 47.2156 57.433 47.648 57.4333 48.0997C57.4333 48.5516 57.2536 48.9849 56.9339 49.3034L56.9326 49.3047C56.6136 49.6233 56.1806 49.8026 55.7283 49.8027H35.4464C34.9939 49.8027 34.5599 49.6236 34.2408 49.3047L34.2395 49.3034C33.9199 48.9849 33.7402 48.5516 33.7402 48.0997C33.7404 47.648 33.92 47.2156 34.2395 46.8973L34.2408 46.896C34.5599 46.577 34.9939 46.3979 35.4464 46.3979Z" stroke="url(#paint3_linear_23507_582)"/>
<path d="M28.2086 20.5899V47.2322C28.2084 47.8766 27.9459 48.4965 27.4743 48.9557C27.0027 49.4162 26.3587 49.6792 25.6838 49.6792C25.0092 49.6792 24.3662 49.4173 23.8948 48.957L23.8934 48.9557C23.4218 48.4965 23.1593 47.8766 23.1592 47.2322V20.5899C23.1592 19.9454 23.4216 19.3245 23.8934 18.8653L24.0786 18.7022C24.5269 18.3435 25.0933 18.1431 25.6838 18.1431C26.2745 18.1431 26.8409 18.3435 27.2891 18.7022L27.4743 18.8653C27.887 19.267 28.139 19.7925 28.1958 20.3492L28.2086 20.5899Z" stroke="url(#paint4_linear_23507_582)"/>
<path d="M15.4948 20.5899V47.2322C15.4945 47.8766 15.2321 48.4965 14.7604 48.9557C14.289 49.4162 13.6448 49.6792 12.97 49.6792C12.2954 49.6792 11.6524 49.4173 11.1809 48.957L11.1796 48.9557C10.708 48.4965 10.4455 47.8766 10.4453 47.2322V20.5899C10.4453 19.9454 10.7078 19.3245 11.1796 18.8653L11.3648 18.7022C11.8131 18.3435 12.3794 18.1431 12.97 18.1431C13.5606 18.1431 14.127 18.3435 14.5752 18.7022L14.7604 18.8653C15.1731 19.267 15.4252 19.7925 15.482 20.3492L15.4948 20.5899Z" stroke="url(#paint5_linear_23507_582)"/>
<path d="M18.514 8.84912H30.0802C30.5852 8.84926 31.0612 9.03757 31.4058 9.36118L31.4071 9.36245C31.7509 9.68436 31.9356 10.1127 31.9358 10.5509C31.9358 10.9893 31.751 11.4185 31.4071 11.7406L31.4058 11.7419C31.0612 12.0655 30.5852 12.2538 30.0802 12.2539H18.514C18.0089 12.2539 17.5319 12.0657 17.1872 11.7419L17.1859 11.7406C16.8421 11.4185 16.6572 10.9892 16.6572 10.5509C16.6574 10.1128 16.8423 9.68435 17.1859 9.36245L17.1872 9.36118C17.4889 9.07771 17.8918 8.89844 18.3264 8.85804L18.514 8.84912Z" stroke="url(#paint6_linear_23507_582)"/>
<path d="M13.7957 10.5205C13.7957 9.59744 13.0455 8.84912 12.12 8.84912C11.1946 8.84912 10.4443 9.59744 10.4443 10.5205C10.4443 11.4436 11.1946 12.1919 12.12 12.1919C13.0455 12.1919 13.7957 11.4436 13.7957 10.5205Z" stroke="url(#paint7_linear_23507_582)"/>
<path d="M43.9839 8.84912H55.55C56.0549 8.84926 56.5309 9.03757 56.8756 9.36118L56.8768 9.36245C57.2206 9.68436 57.4054 10.1127 57.4055 10.5509C57.4055 10.9893 57.2207 11.4185 56.8768 11.7406L56.8756 11.7419C56.5309 12.0655 56.0549 12.2538 55.55 12.2539H43.9839C43.4786 12.2539 43.0017 12.0657 42.657 11.7419L42.6557 11.7406C42.3119 11.4185 42.127 10.9892 42.127 10.5509C42.1272 10.1128 42.3121 9.68435 42.6557 9.36245L42.657 9.36118C42.9588 9.07771 43.3615 8.89844 43.7961 8.85804L43.9839 8.84912Z" stroke="url(#paint8_linear_23507_582)"/>
<path d="M39.2664 10.5205C39.2664 9.59744 38.5162 8.84912 37.5907 8.84912C36.6653 8.84912 35.915 9.59744 35.915 10.5205C35.915 11.4436 36.6653 12.1919 37.5907 12.1919C38.5162 12.1919 39.2664 11.4436 39.2664 10.5205Z" stroke="url(#paint9_linear_23507_582)"/>
<path d="M53.7344 0.652344H14.2659C7.40477 0.652344 1.84277 6.20012 1.84277 13.0436V46.9567C1.84277 53.8002 7.40477 59.348 14.2659 59.348H53.7344C60.5954 59.348 66.1574 53.8002 66.1574 46.9567V13.0436C66.1574 6.20012 60.5954 0.652344 53.7344 0.652344Z" stroke="url(#paint10_linear_23507_582)"/>
<defs>
<linearGradient id="paint0_linear_23507_582" x1="35.3473" y1="20.1498" x2="40.1443" y2="11.8021" gradientUnits="userSpaceOnUse">
<stop stop-color="#CE9400"/>
<stop offset="0.504191" stop-color="#FF008A"/>
<stop offset="1" stop-color="#6100FF"/>
</linearGradient>
<linearGradient id="paint1_linear_23507_582" x1="35.3473" y1="29.5682" x2="40.1443" y2="21.2205" gradientUnits="userSpaceOnUse">
<stop stop-color="#CE9400"/>
<stop offset="0.504191" stop-color="#FF008A"/>
<stop offset="1" stop-color="#6100FF"/>
</linearGradient>
<linearGradient id="paint2_linear_23507_582" x1="35.3473" y1="38.9857" x2="40.1443" y2="30.638" gradientUnits="userSpaceOnUse">
<stop stop-color="#CE9400"/>
<stop offset="0.504191" stop-color="#FF008A"/>
<stop offset="1" stop-color="#6100FF"/>
</linearGradient>
<linearGradient id="paint3_linear_23507_582" x1="35.3473" y1="48.4047" x2="40.1443" y2="40.057" gradientUnits="userSpaceOnUse">
<stop stop-color="#CE9400"/>
<stop offset="0.504191" stop-color="#FF008A"/>
<stop offset="1" stop-color="#6100FF"/>
</linearGradient>
<linearGradient id="paint4_linear_23507_582" x1="23.5017" y1="36.73" x2="27.6132" y2="36.5654" gradientUnits="userSpaceOnUse">
<stop stop-color="#CE9400"/>
<stop offset="0.504191" stop-color="#FF008A"/>
<stop offset="1" stop-color="#6100FF"/>
</linearGradient>
<linearGradient id="paint5_linear_23507_582" x1="10.7878" y1="36.73" x2="14.8995" y2="36.5654" gradientUnits="userSpaceOnUse">
<stop stop-color="#CE9400"/>
<stop offset="0.504191" stop-color="#FF008A"/>
<stop offset="1" stop-color="#6100FF"/>
</linearGradient>
<linearGradient id="paint6_linear_23507_582" x1="17.6936" y1="10.8559" x2="23.2092" y2="4.66659" gradientUnits="userSpaceOnUse">
<stop stop-color="#CE9400"/>
<stop offset="0.504191" stop-color="#FF008A"/>
<stop offset="1" stop-color="#6100FF"/>
</linearGradient>
<linearGradient id="paint7_linear_23507_582" x1="10.6717" y1="10.8193" x2="13.2433" y2="10.1746" gradientUnits="userSpaceOnUse">
<stop stop-color="#CE9400"/>
<stop offset="0.504191" stop-color="#FF008A"/>
<stop offset="1" stop-color="#6100FF"/>
</linearGradient>
<linearGradient id="paint8_linear_23507_582" x1="43.1633" y1="10.8559" x2="48.6789" y2="4.66659" gradientUnits="userSpaceOnUse">
<stop stop-color="#CE9400"/>
<stop offset="0.504191" stop-color="#FF008A"/>
<stop offset="1" stop-color="#6100FF"/>
</linearGradient>
<linearGradient id="paint9_linear_23507_582" x1="36.1424" y1="10.8193" x2="38.714" y2="10.1746" gradientUnits="userSpaceOnUse">
<stop stop-color="#CE9400"/>
<stop offset="0.504191" stop-color="#FF008A"/>
<stop offset="1" stop-color="#6100FF"/>
</linearGradient>
<linearGradient id="paint10_linear_23507_582" x1="6.2052" y1="35.2467" x2="54.9956" y2="21.8778" gradientUnits="userSpaceOnUse">
<stop stop-color="#CE9400"/>
<stop offset="0.504191" stop-color="#FF008A"/>
<stop offset="1" stop-color="#6100FF"/>
</linearGradient>
</defs>
</svg>
