<svg width="24" height="24" viewBox="0 0 24 24" fill="none" xmlns="http://www.w3.org/2000/svg">
<path d="M22.181 21.416H1.81997C1.08197 21.416 0.480469 20.816 0.480469 20.0765V3.92153C0.480469 3.18353 1.08047 2.58203 1.81997 2.58203H22.1825C22.9205 2.58203 23.522 3.18203 23.522 3.92153V20.0765C23.5205 20.8145 22.919 21.416 22.181 21.416ZM1.81997 3.30203C1.47797 3.30203 1.20047 3.57953 1.20047 3.92153V20.0765C1.20047 20.4185 1.47797 20.696 1.81997 20.696H22.1825C22.5245 20.696 22.802 20.4185 22.802 20.0765V3.92153C22.802 3.57953 22.5245 3.30203 22.1825 3.30203H1.81997Z" fill="#414141"/>
<path d="M23.1605 6.52241H0.840469C0.640969 6.52241 0.480469 6.36191 0.480469 6.16241C0.480469 5.96291 0.640969 5.80241 0.840469 5.80241H23.1605C23.36 5.80241 23.5205 5.96291 23.5205 6.16241C23.5205 6.36191 23.36 6.52241 23.1605 6.52241ZM20.9555 4.91141H11.216C11.0165 4.91141 10.856 4.75091 10.856 4.55141C10.856 4.35191 11.0165 4.19141 11.216 4.19141H20.9555C21.155 4.19141 21.3155 4.35191 21.3155 4.55141C21.3155 4.75091 21.155 4.91141 20.9555 4.91141Z" fill="#414141"/>
<path d="M3.52838 5.03331C3.7943 5.03331 4.00988 4.81774 4.00988 4.55181C4.00988 4.28589 3.7943 4.07031 3.52838 4.07031C3.26245 4.07031 3.04688 4.28589 3.04688 4.55181C3.04688 4.81774 3.26245 5.03331 3.52838 5.03331Z" fill="#414141"/>
<path d="M5.54009 5.03331C5.80602 5.03331 6.02159 4.81774 6.02159 4.55181C6.02159 4.28589 5.80602 4.07031 5.54009 4.07031C5.27417 4.07031 5.05859 4.28589 5.05859 4.55181C5.05859 4.81774 5.27417 5.03331 5.54009 5.03331Z" fill="#414141"/>
<path d="M7.55572 5.03331C7.82164 5.03331 8.03722 4.81774 8.03722 4.55181C8.03722 4.28589 7.82164 4.07031 7.55572 4.07031C7.28979 4.07031 7.07422 4.28589 7.07422 4.55181C7.07422 4.81774 7.28979 5.03331 7.55572 5.03331Z" fill="#414141"/>
<path d="M21.2097 13.0101H2.78969C2.59019 13.0101 2.42969 12.8496 2.42969 12.6501V8.25062C2.42969 8.05112 2.59019 7.89062 2.78969 7.89062H21.2097C21.4092 7.89062 21.5697 8.05112 21.5697 8.25062V12.6501C21.5697 12.8496 21.4092 13.0101 21.2097 13.0101ZM3.14969 12.2901H20.8497V8.61062H3.14969V12.2901ZM21.2097 19.3281H14.1012C13.9017 19.3281 13.7412 19.1676 13.7412 18.9681V14.5686C13.7412 14.3691 13.9017 14.2086 14.1012 14.2086H21.2097C21.4092 14.2086 21.5697 14.3691 21.5697 14.5686V18.9681C21.5697 19.1676 21.4092 19.3281 21.2097 19.3281ZM14.4612 18.6081H20.8497V14.9286H14.4612V18.6081ZM12.1902 15.1926H9.23069C9.03119 15.1926 8.87069 15.0321 8.87069 14.8326C8.87069 14.6331 9.03119 14.4726 9.23069 14.4726H12.1902C12.3897 14.4726 12.5502 14.6331 12.5502 14.8326C12.5502 15.0321 12.3882 15.1926 12.1902 15.1926ZM7.97819 15.1926H2.78969C2.59019 15.1926 2.42969 15.0321 2.42969 14.8326C2.42969 14.6331 2.59019 14.4726 2.78969 14.4726H7.97819C8.17769 14.4726 8.33819 14.6331 8.33819 14.8326C8.33819 15.0321 8.17619 15.1926 7.97819 15.1926ZM12.1902 17.1291H6.33569C6.13619 17.1291 5.97569 16.9686 5.97569 16.7691C5.97569 16.5696 6.13619 16.4091 6.33569 16.4091H12.1887C12.3882 16.4091 12.5487 16.5696 12.5487 16.7691C12.5487 16.9686 12.3882 17.1291 12.1902 17.1291ZM5.06219 17.1291H2.78969C2.59019 17.1291 2.42969 16.9686 2.42969 16.7691C2.42969 16.5696 2.59019 16.4091 2.78969 16.4091H5.06219C5.26169 16.4091 5.42219 16.5696 5.42219 16.7691C5.42219 16.9686 5.26019 17.1291 5.06219 17.1291ZM12.1902 19.0656H10.0302C9.83069 19.0656 9.67019 18.9051 9.67019 18.7056C9.67019 18.5061 9.83069 18.3456 10.0302 18.3456H12.1902C12.3897 18.3456 12.5502 18.5061 12.5502 18.7056C12.5502 18.9051 12.3882 19.0656 12.1902 19.0656ZM8.58269 19.0656H2.78969C2.59019 19.0656 2.42969 18.9051 2.42969 18.7056C2.42969 18.5061 2.59019 18.3456 2.78969 18.3456H8.58269C8.78219 18.3456 8.94269 18.5061 8.94269 18.7056C8.94269 18.9051 8.78219 19.0656 8.58269 19.0656Z" fill="#414141"/>
</svg>
