<svg width="17" height="11" viewBox="0 0 17 11" fill="none" xmlns="http://www.w3.org/2000/svg">
<path fill-rule="evenodd" clip-rule="evenodd" d="M12.119 4.678C11.9387 4.59393 11.7991 4.44165 11.731 4.25468C11.6629 4.06771 11.6719 3.86135 11.756 3.681C11.8401 3.50065 11.9923 3.36109 12.1793 3.29301C12.3663 3.22494 12.5727 3.23393 12.753 3.318L16.378 5.009C16.4695 5.04918 16.552 5.10723 16.6208 5.17976C16.6895 5.25228 16.7431 5.33781 16.7783 5.43132C16.8135 5.52483 16.8297 5.62444 16.8259 5.72429C16.8221 5.82415 16.7984 5.92223 16.7561 6.01279C16.7139 6.10335 16.654 6.18455 16.5799 6.25163C16.5058 6.3187 16.4191 6.3703 16.3248 6.40339C16.2305 6.43648 16.1306 6.4504 16.0308 6.44432C15.9311 6.43824 15.8336 6.41229 15.744 6.368L12.119 4.678ZM1 2.25C0.801088 2.25 0.610322 2.17098 0.46967 2.03033C0.329018 1.88968 0.25 1.69891 0.25 1.5C0.25 1.30109 0.329018 1.11032 0.46967 0.96967C0.610322 0.829018 0.801088 0.75 1 0.75H8C8.19891 0.75 8.38968 0.829018 8.53033 0.96967C8.67098 1.11032 8.75 1.30109 8.75 1.5C8.75 1.69891 8.67098 1.88968 8.53033 2.03033C8.38968 2.17098 8.19891 2.25 8 2.25H1ZM1 6.25C0.801088 6.25 0.610322 6.17098 0.46967 6.03033C0.329018 5.88968 0.25 5.69891 0.25 5.5C0.25 5.30109 0.329018 5.11032 0.46967 4.96967C0.610322 4.82902 0.801088 4.75 1 4.75H8C8.19891 4.75 8.38968 4.82902 8.53033 4.96967C8.67098 5.11032 8.75 5.30109 8.75 5.5C8.75 5.69891 8.67098 5.88968 8.53033 6.03033C8.38968 6.17098 8.19891 6.25 8 6.25H1ZM1 10.25C0.801088 10.25 0.610322 10.171 0.46967 10.0303C0.329018 9.88968 0.25 9.69891 0.25 9.5C0.25 9.30109 0.329018 9.11032 0.46967 8.96967C0.610322 8.82902 0.801088 8.75 1 8.75H6C6.19891 8.75 6.38968 8.82902 6.53033 8.96967C6.67098 9.11032 6.75 9.30109 6.75 9.5C6.75 9.69891 6.67098 9.88968 6.53033 10.0303C6.38968 10.171 6.19891 10.25 6 10.25H1Z" fill="#414141"/>
</svg>
