<svg width="24" height="24" viewBox="0 0 24 24" fill="none" xmlns="http://www.w3.org/2000/svg">
<path fill-rule="evenodd" clip-rule="evenodd" d="M10.4041 22.4039C4.66502 22.4039 0 17.7384 0 11.9998C0 6.26128 4.66502 1.5957 10.4041 1.5957C13.0356 1.5957 15.5054 2.5513 17.4293 4.31521C16.7881 4.69543 16.1699 5.11324 15.5779 5.56645C14.1133 4.38359 12.2868 3.73976 10.4041 3.74274C5.85591 3.74274 2.14704 7.45162 2.14704 11.9998C2.14704 16.548 5.85591 20.2563 10.4041 20.2563C16.7323 20.2563 20.4893 13.4919 17.7676 8.23281C18.303 7.73475 18.8575 7.25753 19.4297 6.80219C20.3404 8.37454 20.8082 10.1578 20.8082 11.9993C20.8082 17.7384 16.1432 22.4039 10.4041 22.4039Z" fill="#FDC448"/>
<path fill-rule="evenodd" clip-rule="evenodd" d="M10.6775 17.348C10.6225 17.3472 10.569 17.3301 10.5238 17.2988C10.4785 17.2676 10.4436 17.2236 10.4233 17.1725C10.404 17.1338 8.7253 12.7998 6.12925 11.1599C5.62156 10.8477 5.23124 10.5161 5.38736 9.77417C5.54349 9.05221 6.03126 8.64196 6.90989 8.44708C8.47117 8.11489 10.1504 10.5354 10.7743 11.5309C12.9612 8.34963 17.3334 3.35243 23.697 2.76667C24.0037 2.73068 24.1178 3.18578 23.8337 3.31312C23.7363 3.35187 14.6399 7.50975 10.9504 17.1919C10.9228 17.2398 10.883 17.2795 10.8351 17.3069C10.7871 17.3344 10.7327 17.3485 10.6775 17.348Z" fill="#FDC448"/>
</svg>
