<svg width="40" height="40" viewBox="0 0 40 40" fill="none" xmlns="http://www.w3.org/2000/svg">
<path d="M23.602 15.598C24.2661 14.9339 24.5981 14.6019 24.7783 14.2053C24.9245 13.8833 24.9977 13.5331 24.9928 13.1795C24.9868 12.744 24.8157 12.3067 24.4734 11.4321L20.0001 0L15.5266 11.432C15.1844 12.3066 15.0132 12.7439 15.0072 13.1795C15.0023 13.5331 15.0756 13.8833 15.2218 14.2053C15.4019 14.6019 15.734 14.9339 16.3981 15.5981L19.0837 18.2836C19.4112 18.6111 19.5749 18.7748 19.7648 18.8333C19.9181 18.8804 20.082 18.8804 20.2353 18.8333C20.4252 18.7748 20.589 18.6111 20.9165 18.2836L23.602 15.598Z" fill="white"/>
<path d="M23.602 24.402C24.2661 25.0661 24.5981 25.3981 24.7783 25.7947C24.9245 26.1167 24.9977 26.4669 24.9928 26.8205C24.9868 27.256 24.8157 27.6933 24.4734 28.5679L20.0001 40L15.5266 28.568C15.1844 27.6934 15.0132 27.2561 15.0072 26.8205C15.0023 26.4669 15.0756 26.1167 15.2218 25.7947C15.4019 25.3981 15.734 25.0661 16.3981 24.402L19.0837 21.7164C19.4112 21.3889 19.5749 21.2252 19.7648 21.1667C19.9181 21.1196 20.082 21.1196 20.2353 21.1667C20.4252 21.2252 20.589 21.3889 20.9165 21.7164L23.602 24.402Z" fill="white"/>
<path d="M40 20.0001L28.568 24.4734C27.6933 24.8157 27.256 24.9868 26.8205 24.9928C26.4669 24.9977 26.1167 24.9245 25.7947 24.7783C25.3981 24.5981 25.0661 24.2661 24.402 23.602L21.7164 20.9165C21.3889 20.589 21.2252 20.4252 21.1667 20.2353C21.1196 20.082 21.1196 19.9181 21.1667 19.7648C21.2252 19.5749 21.3889 19.4112 21.7164 19.0837L24.4019 16.3981C25.0661 15.734 25.3981 15.4019 25.7947 15.2218C26.1167 15.0756 26.4669 15.0023 26.8205 15.0072C27.2561 15.0132 27.6934 15.1844 28.568 15.5266L40 20.0001Z" fill="white"/>
<path d="M15.598 23.602C14.9339 24.2661 14.6019 24.5981 14.2053 24.7783C13.8833 24.9245 13.5331 24.9977 13.1795 24.9928C12.744 24.9868 12.3067 24.8157 11.4321 24.4734L0 20.0001L11.432 15.5266C12.3066 15.1844 12.7439 15.0132 13.1795 15.0072C13.5331 15.0023 13.8833 15.0756 14.2053 15.2218C14.6019 15.4019 14.9339 15.734 15.5981 16.3981L18.2836 19.0837C18.6111 19.4112 18.7748 19.5749 18.8333 19.7648C18.8804 19.9181 18.8804 20.082 18.8333 20.2353C18.7748 20.4252 18.6111 20.589 18.2836 20.9165L15.598 23.602Z" fill="white"/>
</svg>
