<svg width="131" height="26" viewBox="0 0 131 26" fill="none" xmlns="http://www.w3.org/2000/svg">
<path d="M5.308 0.299998V21.432H16.54V25.5H0.448V0.299998H5.308ZM19.7839 0.299998H24.6439V25.5H19.7839V0.299998ZM50.4014 0.299998V25.5H45.4334L34.4174 8.004V25.5H29.5574V0.299998H34.4894L45.5414 17.796V0.299998H50.4014ZM73.0038 4.368H60.1518V10.776H69.7638V14.7H60.1518V21.432H73.0038V25.5H55.2918V0.299998H73.0038V4.368ZM92.0621 7.572C92.0621 6.516 91.7261 5.724 91.0541 5.196C90.3821 4.644 89.4341 4.368 88.2101 4.368H82.0541V10.74H88.1741C89.3981 10.74 90.3461 10.476 91.0181 9.948C91.7141 9.396 92.0621 8.604 92.0621 7.572ZM77.1941 25.5V0.299998H88.8941C90.6461 0.299998 92.1221 0.599999 93.3221 1.2C94.5221 1.776 95.4221 2.568 96.0221 3.576C96.6461 4.56 96.9581 5.676 96.9581 6.924C96.9581 8.028 96.7541 8.964 96.3461 9.732C95.9381 10.5 95.3741 11.112 94.6541 11.568C93.9581 12 93.1541 12.3 92.2421 12.468V12.756C93.3461 12.9 94.2941 13.212 95.0861 13.692C95.8781 14.148 96.4901 14.796 96.9221 15.636C97.3541 16.476 97.5701 17.496 97.5701 18.696C97.5701 20.016 97.2461 21.192 96.5981 22.224C95.9501 23.232 95.0021 24.036 93.7541 24.636C92.5301 25.212 91.0541 25.5 89.3261 25.5H77.1941ZM82.0541 21.432H88.6781C89.9501 21.432 90.9341 21.156 91.6301 20.604C92.3501 20.028 92.7101 19.2 92.7101 18.12C92.7101 16.992 92.3261 16.14 91.5581 15.564C90.8141 14.988 89.8181 14.7 88.5701 14.7H82.0541V21.432ZM101.628 0.299998H106.488V25.5H101.628V0.299998ZM110.177 0.299998H130.625V4.368H122.849V25.5H117.989V4.368H110.177V0.299998Z" fill="white"/>
</svg>
